<?xml version="1.0" standalone="no"?>
<!DOCTYPE svg PUBLIC "-//W3C//DTD SVG 20010904//EN"
 "http://www.w3.org/TR/2001/REC-SVG-20010904/DTD/svg10.dtd">
<svg version="1.0" xmlns="http://www.w3.org/2000/svg"
 width="700.000000pt" height="700.000000pt" viewBox="0 0 700.000000 700.000000"
 preserveAspectRatio="xMidYMid meet">
<metadata>
Created by potrace 1.11, written by Peter Selinger 2001-2013
</metadata>
<g transform="translate(0.000000,700.000000) scale(0.100000,-0.100000)"
fill="#000000" stroke="none">
<path d="M3225 6989 c-644 -60 -1219 -265 -1720 -614 -237 -165 -551 -457
-721 -670 -599 -751 -864 -1661 -758 -2605 72 -645 338 -1280 750 -1795 114
-142 389 -417 529 -529 322 -257 716 -472 1095 -596 518 -171 1053 -219 1590
-144 726 101 1405 433 1933 944 606 586 958 1303 1059 2155 16 139 16 595 0
730 -95 786 -401 1459 -915 2010 -581 624 -1317 999 -2162 1101 -156 19 -541
26 -680 13z m2346 -1990 c126 -59 201 -172 207 -309 2 -42 -1 -94 -7 -115 -10
-40 -587 -1049 -1491 -2610 -540 -932 -533 -921 -668 -964 -127 -41 -261 -12
-349 76 -25 25 -201 321 -512 863 -261 454 -704 1216 -985 1695 -280 478 -521
896 -534 929 -58 144 8 333 145 413 94 55 -29 52 2133 50 l2005 -2 56 -26z"/>
</g>
</svg>
