<?xml version="1.0" standalone="no"?>
<!DOCTYPE svg PUBLIC "-//W3C//DTD SVG 20010904//EN"
 "http://www.w3.org/TR/2001/REC-SVG-20010904/DTD/svg10.dtd">
<svg version="1.0" xmlns="http://www.w3.org/2000/svg"
 width="512.000000pt" height="512.000000pt" viewBox="0 0 512.000000 512.000000"
 preserveAspectRatio="xMidYMid meet">
<metadata>
Created by potrace 1.14, written by Peter Selinger 2001-2017
</metadata>
<g transform="translate(0.000000,512.000000) scale(0.100000,-0.100000)"
fill="#000000" stroke="none">
<path d="M79 5041 l-29 -29 0 -2452 0 -2452 29 -29 29 -29 2452 0 2452 0 29
29 29 29 0 2452 0 2452 -29 29 -29 29 -2452 0 -2452 0 -29 -29z m1142 -1702
c19 -7 46 -23 61 -37 l28 -26 221 33 c437 64 525 55 580 -64 18 -38 19 -85 19
-877 l0 -838 -125 0 -125 0 0 796 0 795 -52 -5 c-29 -3 -120 -8 -203 -11 -82
-3 -178 -8 -212 -11 l-63 -6 0 -779 0 -779 -125 0 -125 0 0 796 0 796 -57 -6
c-32 -3 -121 -8 -198 -11 -77 -3 -173 -8 -212 -11 l-73 -6 0 -779 0 -779 -125
0 -125 0 0 905 0 905 125 0 125 0 0 -28 0 -29 93 14 c338 52 501 64 568 42z
m1613 -691 c82 -381 152 -699 154 -707 6 -16 7 -13 193 837 l123 562 123 0
c68 0 123 -3 123 -7 0 -23 -409 -1699 -512 -2100 l-101 -393 -122 0 -123 0 54
207 c30 115 71 273 91 353 l36 145 -221 891 c-122 490 -222 894 -222 897 0 4
57 7 128 7 l127 0 149 -692z m1869 678 c49 -18 74 -41 100 -91 18 -36 21 -62
25 -247 l4 -208 -126 0 -126 0 0 175 0 175 -247 -2 -248 -3 -1 -157 0 -157
325 -263 c178 -145 339 -278 358 -297 54 -55 63 -105 63 -340 0 -120 -5 -223
-11 -246 -15 -52 -74 -110 -127 -124 -28 -8 -151 -11 -379 -9 -382 3 -391 5
-441 81 l-27 40 -3 244 -3 243 120 0 121 0 0 -200 0 -200 250 0 250 0 0 183 0
183 -341 279 c-259 212 -347 289 -367 324 l-27 46 0 225 c0 243 2 256 58 308
51 48 79 51 432 51 253 0 339 -3 368 -13z"/>
</g>
</svg>
