<?xml version="1.0" standalone="no"?>
<!DOCTYPE svg PUBLIC "-//W3C//DTD SVG 20010904//EN"
 "http://www.w3.org/TR/2001/REC-SVG-20010904/DTD/svg10.dtd">
<svg version="1.0" xmlns="http://www.w3.org/2000/svg"
 width="536.000000pt" height="536.000000pt" viewBox="0 0 536.000000 536.000000"
 preserveAspectRatio="xMidYMid meet">
<metadata>
Created by potrace 1.11, written by Peter Selinger 2001-2013
</metadata>
<g transform="translate(0.000000,536.000000) scale(0.100000,-0.100000)"
fill="#000000" stroke="none">
<path d="M2628 5298 c-31 -35 -67 -75 -79 -90 -13 -16 -41 -46 -61 -69 -21
-22 -38 -43 -38 -47 0 -3 -9 -15 -20 -27 -37 -39 -90 -102 -90 -109 0 -3 -8
-15 -17 -25 -30 -32 -63 -72 -63 -77 0 -3 -46 -66 -83 -114 -11 -14 -69 -98
-109 -159 -10 -14 -26 -42 -37 -62 -11 -21 -26 -43 -33 -50 -7 -8 -21 -30 -31
-49 -10 -19 -29 -53 -41 -75 -43 -72 -146 -280 -146 -293 0 -6 -4 -12 -8 -12
-5 0 -15 -19 -23 -42 -7 -24 -24 -64 -36 -90 -13 -27 -23 -54 -23 -61 0 -7 -4
-17 -8 -22 -5 -6 -14 -30 -21 -55 -8 -25 -22 -66 -32 -91 -18 -46 -30 -90 -32
-121 -1 -10 -5 -18 -10 -18 -4 0 -6 -3 -4 -7 3 -5 0 -19 -5 -33 -6 -14 -12
-38 -14 -54 -3 -16 -5 -31 -7 -32 -2 -3 -95 63 -142 102 -33 26 -215 142 -285
181 -36 20 -72 42 -80 48 -8 7 -26 16 -40 20 -14 4 -27 11 -30 14 -6 8 -256
131 -266 131 -4 0 -36 13 -71 30 -34 16 -69 30 -77 30 -8 0 -16 5 -18 10 -2 6
-13 12 -26 13 -12 0 -22 6 -22 11 0 5 -3 7 -6 3 -4 -3 -20 1 -37 9 -30 16
-135 53 -151 54 -4 0 -6 -6 -3 -14 3 -8 3 -17 -1 -20 -3 -4 -8 -19 -10 -34 -2
-14 -8 -32 -14 -39 -6 -7 -7 -13 -3 -13 4 0 3 -6 -3 -12 -5 -7 -13 -37 -17
-65 -3 -29 -10 -66 -15 -83 -5 -16 -6 -30 -3 -30 3 0 1 -6 -5 -13 -6 -7 -13
-34 -16 -61 -4 -26 -10 -65 -15 -86 -5 -22 -6 -41 -4 -44 3 -2 1 -11 -3 -18
-5 -7 -9 -20 -11 -28 -5 -35 -14 -99 -18 -121 -2 -13 -6 -62 -10 -109 -4 -47
-9 -98 -12 -115 -9 -56 -15 -485 -7 -485 5 0 8 -17 8 -37 -1 -21 2 -65 7 -98
4 -33 10 -84 13 -114 3 -30 8 -61 10 -70 3 -9 7 -27 10 -41 3 -14 8 -36 11
-50 3 -14 10 -49 16 -78 6 -29 17 -71 25 -94 8 -23 17 -55 20 -72 3 -17 10
-36 16 -43 6 -7 7 -13 3 -13 -4 0 -2 -6 4 -14 7 -8 14 -23 16 -34 2 -11 17
-52 34 -90 17 -39 31 -77 31 -86 0 -9 4 -16 10 -16 5 0 13 -12 16 -27 4 -16
15 -39 24 -53 10 -14 28 -46 40 -72 12 -27 26 -48 31 -48 5 0 9 -7 9 -15 0 -8
17 -40 37 -71 21 -31 43 -64 48 -73 17 -28 99 -141 120 -166 11 -13 34 -40 50
-61 89 -114 279 -306 420 -423 55 -46 105 -90 111 -97 6 -8 15 -14 20 -14 5 0
20 -10 34 -23 14 -12 50 -40 80 -62 30 -22 57 -42 60 -45 6 -6 91 -63 105 -70
6 -3 55 -35 110 -71 55 -36 107 -69 115 -73 8 -4 33 -18 55 -31 22 -14 56 -33
75 -42 19 -10 37 -21 40 -24 3 -4 46 -27 95 -53 50 -26 94 -51 99 -57 6 -5 16
-9 23 -9 7 0 31 -11 52 -24 21 -14 41 -23 44 -20 2 3 -4 21 -14 42 -11 20 -19
42 -19 49 0 7 -5 13 -11 13 -5 0 -8 4 -5 9 4 5 3 11 -2 13 -8 3 -82 162 -82
177 0 5 -4 11 -8 13 -9 3 -92 171 -92 186 0 5 -7 15 -15 22 -9 7 -14 15 -11
17 2 2 -20 50 -48 106 -29 56 -55 111 -59 122 -3 11 -12 31 -20 45 -7 14 -20
39 -29 55 -8 17 -19 39 -25 50 -6 11 -19 38 -29 60 -19 44 -82 173 -108 220
-9 17 -16 38 -16 47 0 9 -3 18 -8 20 -9 4 -82 152 -82 167 0 6 -3 11 -8 11 -4
0 -13 15 -21 33 -7 17 -37 82 -67 142 -30 61 -54 116 -54 123 0 6 -5 12 -11
12 -5 0 -7 5 -4 10 3 6 1 10 -4 10 -6 0 -11 4 -11 9 0 8 -62 142 -79 171 -5 8
-33 65 -61 125 -28 61 -63 132 -76 158 -13 27 -24 55 -24 62 0 7 -6 18 -13 24
-8 6 -20 29 -27 51 -7 22 -16 40 -19 40 -3 0 -12 15 -20 32 -7 18 -33 74 -57
124 -24 50 -44 96 -44 102 0 7 -3 12 -8 12 -8 0 -42 73 -42 90 0 6 -4 10 -10
10 -5 0 -10 9 -10 20 0 11 -4 20 -9 20 -5 0 -12 12 -16 27 -3 15 -15 39 -26
55 -11 15 -17 28 -14 28 4 0 -3 16 -15 35 -12 19 -18 35 -13 35 4 0 4 4 -2 8
-12 9 -85 156 -85 171 0 6 -4 11 -10 11 -5 0 -10 7 -10 15 0 9 -15 44 -32 78
-18 34 -34 68 -36 76 -1 7 -9 20 -17 28 -8 8 -15 22 -15 31 0 9 -9 28 -20 42
-11 14 -20 31 -20 37 0 7 -13 36 -28 65 -16 29 -32 62 -35 73 l-7 20 16 -20
c8 -11 38 -62 67 -114 29 -51 64 -114 78 -140 14 -25 44 -80 66 -121 22 -41
66 -119 97 -172 31 -53 56 -99 56 -102 0 -3 18 -35 40 -70 21 -36 60 -105 86
-153 26 -48 50 -90 54 -93 3 -3 12 -20 19 -37 8 -18 18 -33 23 -33 5 0 6 -4 3
-10 -3 -5 -1 -10 4 -10 6 0 11 -6 11 -12 0 -7 23 -51 50 -97 28 -46 50 -90 50
-97 0 -7 5 -16 10 -19 6 -3 18 -23 28 -43 30 -60 74 -137 83 -142 4 -3 10 -17
14 -32 4 -15 15 -34 26 -44 10 -9 19 -23 19 -30 0 -7 11 -30 25 -50 14 -20 25
-43 25 -50 0 -8 4 -14 9 -14 5 0 11 -8 14 -17 3 -10 26 -54 52 -98 25 -44 51
-91 58 -105 6 -14 14 -27 17 -30 7 -6 60 -105 79 -148 8 -17 20 -32 26 -32 5
0 18 -17 28 -38 19 -40 27 -54 127 -232 35 -63 65 -117 65 -120 1 -3 11 -21
23 -40 12 -19 32 -55 44 -80 13 -25 26 -47 29 -50 7 -5 20 -30 69 -126 14 -27
28 -51 31 -54 4 -3 16 -23 28 -45 23 -43 29 -54 55 -100 9 -16 24 -43 32 -60
9 -16 29 -52 45 -80 15 -27 38 -69 50 -92 12 -24 25 -43 30 -43 5 0 9 -6 9
-14 0 -8 21 -49 46 -92 25 -43 50 -89 55 -102 10 -27 18 -25 24 5 2 10 4 18 5
18 4 0 9 76 14 230 5 157 11 345 22 635 5 149 12 305 19 455 3 66 7 202 8 302
1 101 4 183 7 183 5 0 7 86 10 363 0 64 4 117 8 117 4 0 6 52 4 115 -1 63 1
115 5 115 5 0 9 105 9 233 2 307 12 699 18 717 3 8 8 119 12 245 3 127 8 271
10 320 2 50 6 212 9 360 6 306 6 296 16 289 5 -2 6 -11 2 -19 -3 -8 -1 -15 3
-15 5 0 10 -62 10 -138 4 -344 16 -875 30 -1312 5 -146 8 -327 9 -402 0 -76 2
-138 6 -138 3 0 6 -60 7 -132 5 -304 12 -675 18 -848 3 -102 5 -236 5 -297 1
-62 4 -113 9 -113 4 0 7 -21 6 -48 -1 -26 1 -62 5 -79 4 -19 3 -33 -3 -33 -5
0 -6 -6 -2 -12 9 -14 9 -35 19 -556 7 -400 12 -501 26 -539 6 -16 10 -29 10
-30 -6 -21 6 -3 35 53 20 38 40 71 43 74 6 5 16 23 91 168 19 37 40 73 47 80
7 7 24 36 38 64 40 79 98 182 106 188 4 3 15 24 24 48 10 23 21 42 26 42 5 0
9 6 9 13 0 7 14 34 30 60 17 26 30 54 30 62 0 8 4 15 9 15 5 0 16 17 25 37 9
21 32 63 51 93 18 30 50 87 70 127 20 40 43 77 50 83 7 6 16 22 19 36 4 14 15
38 25 53 10 14 30 47 45 73 14 26 32 53 39 60 6 7 23 33 36 58 52 98 73 136
83 148 6 6 7 12 4 12 -4 0 3 14 15 32 13 18 30 46 39 62 46 88 104 193 114
206 6 8 29 50 51 92 21 43 42 78 46 78 4 0 10 13 14 30 4 17 10 30 15 30 4 0
17 19 29 43 31 62 114 212 126 228 6 8 24 41 40 74 17 33 32 62 35 65 9 9 30
45 41 70 5 13 13 27 17 30 12 9 32 49 32 64 0 8 7 16 15 20 8 3 15 12 15 20 0
8 20 47 45 88 25 40 50 85 56 101 6 15 15 27 20 27 5 0 8 4 7 8 -2 5 14 37 35
72 20 34 37 69 37 76 0 7 7 17 15 22 9 4 17 18 20 30 2 11 15 38 29 59 14 21
26 43 26 49 0 7 3 14 8 16 9 4 38 53 62 106 21 45 70 122 70 108 0 -11 -34
-70 -42 -74 -5 -2 -8 -11 -8 -19 0 -8 -40 -97 -89 -197 -48 -99 -97 -199 -107
-220 -10 -22 -26 -53 -35 -70 -10 -17 -15 -34 -12 -39 2 -4 -3 -10 -11 -13 -9
-3 -16 -14 -16 -23 0 -9 -7 -27 -16 -39 -8 -12 -12 -22 -8 -22 4 0 1 -8 -7
-17 -21 -27 -114 -222 -121 -253 -2 -8 -10 -20 -18 -27 -8 -6 -15 -15 -15 -20
0 -8 -23 -56 -117 -250 -27 -56 -49 -105 -48 -109 1 -4 -2 -10 -7 -13 -5 -3
-24 -37 -41 -76 -18 -38 -37 -78 -42 -88 -18 -31 -27 -51 -75 -152 -64 -134
-70 -147 -82 -170 -39 -76 -113 -234 -113 -243 0 -6 -3 -12 -7 -14 -8 -3 -45
-77 -45 -88 0 -3 -11 -24 -25 -48 -14 -23 -21 -42 -16 -42 4 0 3 -4 -3 -8 -5
-4 -18 -25 -28 -47 -10 -22 -32 -67 -49 -100 -17 -33 -34 -67 -37 -75 -4 -8
-24 -49 -44 -90 -20 -41 -36 -81 -36 -87 0 -7 -3 -13 -8 -13 -4 0 -13 -15 -21
-32 -7 -18 -51 -109 -96 -203 -46 -93 -91 -189 -101 -212 -10 -24 -21 -43 -25
-43 -4 0 -11 -15 -14 -33 -4 -17 -11 -34 -14 -37 -6 -4 -65 -120 -76 -150 -18
-46 -31 -70 -36 -70 -4 0 -10 -12 -14 -27 -3 -15 -15 -39 -26 -55 -11 -15 -18
-28 -14 -28 3 0 -1 -13 -9 -29 -9 -16 -13 -31 -10 -34 6 -5 43 11 54 24 3 3
37 21 75 40 39 18 72 36 75 39 3 3 25 15 50 28 79 41 115 61 125 69 6 5 42 26
80 48 39 21 72 41 75 44 3 4 22 15 43 26 20 11 37 22 37 26 0 4 14 12 30 19
17 7 30 16 30 21 0 4 9 11 21 14 11 4 36 20 55 37 19 17 34 27 34 24 0 -6 106
71 165 120 17 14 35 28 40 32 143 107 347 296 465 431 77 88 84 97 110 131 14
19 37 48 53 66 15 17 27 37 27 43 0 6 4 11 9 11 7 0 69 88 80 115 2 6 15 24
28 41 12 17 23 35 23 41 0 5 8 18 17 29 16 18 31 45 75 139 8 17 19 39 25 50
14 24 84 192 88 208 1 7 5 21 9 32 5 11 12 31 16 45 4 14 11 34 15 45 4 11 9
27 10 35 2 8 12 49 23 90 28 101 51 216 54 267 1 24 4 43 7 43 4 0 7 17 8 37
1 21 5 83 10 138 10 122 9 365 -3 500 -4 55 -8 109 -9 120 0 11 -3 25 -6 30
-4 6 -7 30 -8 55 -3 80 -17 174 -36 240 -1 3 -5 25 -10 50 -5 25 -9 47 -10 50
0 3 -5 28 -9 55 -4 28 -12 57 -16 65 -5 9 -11 35 -15 58 -7 46 -41 181 -47
187 -6 6 -87 -20 -139 -43 -25 -11 -57 -24 -72 -27 -15 -4 -30 -11 -33 -16 -3
-5 -14 -9 -25 -9 -10 0 -19 -4 -19 -10 0 -5 -7 -10 -15 -10 -8 0 -39 -11 -69
-24 -30 -13 -57 -22 -60 -18 -3 3 -6 1 -6 -5 0 -5 -24 -20 -52 -32 -29 -13
-60 -27 -68 -32 -8 -5 -26 -14 -40 -19 -14 -6 -32 -15 -40 -20 -8 -6 -36 -20
-62 -32 -27 -11 -48 -24 -48 -28 0 -4 -20 -15 -45 -26 -25 -10 -45 -21 -45
-25 0 -4 -10 -11 -22 -15 -13 -4 -37 -17 -54 -30 -17 -13 -36 -24 -41 -24 -6
0 -17 -7 -24 -16 -7 -9 -22 -20 -34 -25 -25 -12 -103 -67 -148 -104 -6 -6 -27
-21 -44 -34 -33 -22 -33 -22 -34 -2 -2 23 -3 28 -11 51 -3 8 -13 44 -22 80 -9
36 -21 83 -27 105 -6 22 -12 46 -12 53 0 6 -4 12 -9 12 -4 0 -8 9 -8 19 0 11
-4 22 -9 26 -5 3 -13 20 -17 38 -3 17 -20 60 -35 95 -16 34 -29 69 -29 77 0 8
-4 15 -10 15 -5 0 -10 7 -10 15 0 14 -26 67 -148 310 -9 17 -19 32 -23 35 -5
3 -14 19 -21 35 -15 34 -63 112 -125 203 -24 34 -43 65 -43 68 0 3 -6 11 -12
18 -7 8 -20 24 -28 36 -8 13 -39 54 -67 91 -29 38 -53 73 -53 78 0 5 -3 11 -7
13 -7 3 -60 66 -123 149 -14 18 -43 53 -65 78 -22 24 -49 55 -60 67 -11 13
-40 46 -65 75 -58 67 -70 79 -79 79 -4 0 -32 -28 -63 -62z m72 -238 c0 -5 -5
-10 -11 -10 -5 0 -7 5 -4 10 3 6 8 10 11 10 2 0 4 -4 4 -10z m-7 -55 c4 -8 3
-16 -1 -19 -4 -3 -9 4 -9 15 -2 23 3 25 10 4z m7 -65 c0 -5 -5 -10 -11 -10 -5
0 -7 5 -4 10 3 6 8 10 11 10 2 0 4 -4 4 -10z m-2222 -1181 c19 -30 8 -34 -12
-4 -9 14 -13 25 -9 25 5 0 14 -9 21 -21z m4393 -32 c-10 -9 -11 -8 -5 6 3 10
9 15 12 12 3 -3 0 -11 -7 -18z m-4345 -54 c-7 -7 -26 7 -26 19 0 6 6 6 15 -2
9 -7 13 -15 11 -17z"/>
</g>
</svg>
