<svg version="1.1" id="Layer_1" xmlns="http://www.w3.org/2000/svg" xmlns:xlink="http://www.w3.org/1999/xlink" x="0" y="0" viewBox="0 0 78.3 40" style="enable-background:new 0 0 78.3 40" xml:space="preserve"><style></style><defs><path id="SVGID_1_" d="M0 0h78.3v40H0z"/></defs><clipPath id="SVGID_00000038380863488308237830000007430427298085077932_"><use xlink:href="#SVGID_1_" style="overflow:visible"/></clipPath><g style="clip-path:url(#SVGID_00000038380863488308237830000007430427298085077932_)"><linearGradient id="SVGID_00000007422059117423865440000013222634340173830329_" gradientUnits="userSpaceOnUse" x1="71.752" y1="22" x2="0" y2="22" gradientTransform="matrix(1 0 0 -1 0 42)"><stop offset="0" style="stop-color:#a2ffe8"/><stop offset="1" style="stop-color:#00eee6"/></linearGradient><path style="fill:url(#SVGID_00000007422059117423865440000013222634340173830329_)" d="M42.2 28.5V16.2l-5.7 12.4h-2.2l-5.7-12.4v12.4h-2.4V11.4H29l6.4 13.8 6.4-13.8h2.8v17.1h-2.4zm-25-10.1h4.1v-1.1c-.2-2.6-1.8-3.8-5.2-3.8-3.6 0-4.4 2.3-4.6 2.8l-.2.5H8.8l.2-.9c.1-.5 1.3-4.8 6.9-4.8 6 0 7.4 3.3 7.6 6 0 .6.1 2.3.1 2.7v8.8h-2.4v-1.7c-.7.5-1.4.9-2.2 1.2-1.4.6-3 .9-4.6.9-1.4.1-2.8-.3-4-1-.6-.4-1.1-.9-1.4-1.6-.3-.6-.5-1.4-.5-2.1 0-.7.1-1.4.4-2.1s.7-1.2 1.2-1.7c2.1-1.9 5.6-2.1 7.1-2.1zm.3 2.4h-.4c-1.1 0-4 .1-5.4 1.5-.3.3-.5.6-.6.9-.1.4-.2.7-.2 1.1 0 .3 0 .7.2 1 .1.3.4.6.6.7 1.6 1 5.1.5 6.4-.1 1.2-.5 2.2-1.3 3.1-2.2v-3l-3.7.1zm52 17H2.3V2.2h67.2V8h2.3V0H0v40h71.8v-8h-2.3v5.8zM54.8 13.4c.9 0 1.8.2 2.7.7.8.4 1.5 1.1 2 1.9l.1.1h2.7l-.2-.4c-.7-1.4-1.7-2.5-3-3.3-1.3-.8-2.8-1.3-4.3-1.3-4.6 0-8.3 4-8.3 8.9s3.7 8.9 8.3 8.9c1.5 0 3-.5 4.3-1.3 1.3-.8 2.3-2 3-3.3l.2-.4h-2.7l-.1.1c-.5.8-1.2 1.4-2 1.9-.8.4-1.7.7-2.7.7-3.3 0-6-3-6-6.6 0-3.6 2.7-6.6 6-6.6"/><path d="M71.7 18.9v-6.5h-2.2v6.5h-6.6v2.2h6.6v6.5h2.2v-6.5h6.6v-2.2h-6.6z" style="fill:#fff"/></g></svg>