<svg version="1.1" id="Layer_1" xmlns="http://www.w3.org/2000/svg" x="0" y="0" viewBox="0 0 1000 178.5" style="enable-background:new 0 0 1000 178.5" xml:space="preserve"><style>.st0{fill-rule:evenodd;clip-rule:evenodd;fill:#fff}</style><path id="polygon52" class="st0" d="M763 0h44.8v139.1h67.4v39.1H763z"/><path id="path54" class="st0" d="M592.5 0h45v178.2h-45V0zM697 178.2h56.5l-61.6-92.4L752.8 0h-56.5L667 48.3l-24.1 39.8-.6 1 22.3 35.1 32.4 54z"/><path id="polygon56" class="st0" d="M930.3 39.1v28.7h59.4v39.1h-59.4v32.2h69.7v39.1H885.4V0h112.7v39.1z"/><path id="path58" class="st0" d="M135.7 0h77.1c40.6 0 61.9 26.6 61.9 58.1 0 23.9-9 42-32.8 52.1l39.2 68h-44.8L182.5 87v-2.3h26.4c14.1 0 25.7-11 25.7-24.5s-9-24.5-24.5-24.5h-29.6v142.5h-44.8V0z"/><path id="path60" class="st0" d="M354.6 102.5h38l-19-61-19 61zm49.9 38.3h-61.8l-11.6 37.4h-47.7L343.6 0h60l60.2 178.2h-47.7l-11.6-37.4z"/><path id="path62" class="st0" d="M579.6 2.1v35.7c-12.5-.9-27.2-1.8-39.5 0-36.1 5.4-46.2 35-46.2 51.3 0 16.8 11.7 47.3 50.2 51 11.2 1.1 24.6.1 35.5-.4v36.4c-18.9 3.3-41.3 3.6-62-2.1-39.2-10.5-61.7-43.3-61.7-84.9S482.6 14 518.7 4.2c20.7-5.7 42.3-4.3 60.9-2.1z"/><path id="path64" class="st0" d="M123.7 2.1v35.7c-12.5-.9-27.2-1.8-39.5 0C48.1 43.2 38 72.8 38 89.1c0 16.8 11.7 47.3 50.2 51 11.1 1.1 24.5.1 35.5-.4v36.4c-18.9 3.3-41.3 3.6-62-2.1C22.6 163.5 0 130.7 0 89.1S26.8 14 62.8 4.2c20.7-5.7 42.3-4.3 60.9-2.1z"/></svg>