<svg version="1.1" id="Layer_1" xmlns="http://www.w3.org/2000/svg" x="0" y="0" viewBox="0 0 409.2 137.9" style="enable-background:new 0 0 409.2 137.9" xml:space="preserve"><style>.st0{fill:#fff}.st1{fill:#0071ba}</style><path class="st0" d="M245.4 1c8.9-2.1 18.9-.8 26.1 5 5.6 4.3 8.8 11.1 10 17.9-5.5-.8-11-1.7-16.5-2.3-1.7-3.5-4.6-6.8-8.6-7.6-5.5-1.4-11.2 1-14.2 5.8-5.4-.3-10.8-.5-16.1-.5 2.6-9.1 10-16.1 19.3-18.3zM0 58.2V.8h29.6c7.8.1 15.9 3.1 20.6 9.6 6.8 8.4 5.2 20 5.6 30.1-5.1 1.5-10.2 2.7-15.3 4.2 0-6.7.2-13.5-.7-20.1-.7-5.6-5.8-9.9-11.2-10.3-4.4-.2-8.9 0-13.3-.1v38.4C10.1 54.4 5.1 56.3 0 58.2zM69.3.8h15v33.3c-5 1.1-10 2.1-15 3.2V.8zM99.3.8h31.2c8.2 0 16.6 4.2 20.6 11.6 2 3.3 2.6 7.1 3.1 10.9-5.1.7-10.1 1.2-15.2 1.8.1-4.9-3-9.9-8.1-10.6-5.5-.6-11.1-.1-16.6-.2v14.4c-5 .8-10 1.7-15 2.5V.8zM166.5.8H217v13.5h-35.5c0 2.2 0 4.4-.1 6.6-5 .3-10 .8-14.9 1.2V.8zM175.3 92.8c3.3-2.5 6.6-5.1 10-7.6v7h9.2v9.3h-9.2c.1 7.8-.2 15.7.2 23.5 1.4 3.6 6 2.8 9.1 2.8v9c-4.9.4-10.2.6-14.6-2.1-3.7-2.6-4.5-7.4-4.6-11.7-.2-10-.1-20.1-.1-30.2zM141.7 94.2c7.8-6.1 20.2-4.7 26.6 2.8-2.4 1.9-4.9 3.8-7.3 5.7-3.3-3.7-10.3-4.9-13.5-.6-1.3 2.6.9 5 3.3 5.7 4.7 2.2 10.1 2.8 14.7 5.2 7.6 4.5 7.2 17.2-.5 21.3-9.6 5.7-25 3.4-29.7-7.7 2.8-1.6 5.6-3.3 8.5-4.8 2.1 6 9.6 7.9 15 5.3 2.1-1.1 3.1-4 1.5-5.9-5.1-4-12.1-4.1-17.7-7.1-7.1-3.9-7.2-15.2-.9-19.9zM211.5 98.8c2.5-5.2 8.2-7.5 13.8-7.7v10.8c-3.7-.1-7.7.6-10.5 3.3-2.8 2.4-3.3 6.3-3.3 9.7v21.8h-9.7V92.2h9.8c-.1 2.2-.1 4.4-.1 6.6zM243.1 91.7c7-1.7 15.1-.8 20.7 4 6.6 5.4 9.3 14.4 8.1 22.7h-35.4c2.2 11.4 19.2 13.9 25.6 4.8l8.1 4.8c-8.8 13.5-31.7 13-40.2-.4-3.6-5.4-4.3-12.3-3.1-18.6 1.5-8.5 7.9-15.1 16.2-17.3m-3.5 12.4c-1.7 1.8-2.5 4.1-3.2 6.4 8.6 0 17.3.1 25.9 0-.8-2.2-1.4-4.5-3-6.3-4.8-5.8-14.8-5.6-19.7-.1zM276.5 106c2.9-8.4 11-15 20-15 6.2-.5 12.3 2.1 16.3 6.9 0-1.9-.1-3.8-.1-5.7h9.8v44.5h-9.8v-6c-7.5 9.7-23.4 9-31.2.1-6.3-6.4-7.8-16.4-5-24.8m19.5-5.4c-7.3 1.2-12.3 9.1-10.8 16.2.9 7.1 8.1 12.5 15.2 11.5 7.9-.5 13.7-8.7 12.1-16.4-.8-7.6-9-13.1-16.5-11.3zM337.9 97c5.9-8.2 20-8.2 25.2.6 4.7-7.2 15-8.4 22.2-4.6 5.2 2.9 8.1 9 8.1 14.8v28.9h-9.8v-25.8c0-2.8-.2-5.9-2.2-8-3.1-3.6-9.2-3.6-12.6-.4-2.5 2.4-3.3 6.1-3.2 9.4v24.8H356V111c-.1-3-.4-6.5-2.7-8.7-3.7-3.4-10.2-2.4-13.1 1.6-1.8 2.3-2.2 5.3-2.2 8.2v24.7h-9.8V92.2h9.8c0 1.6 0 3.2-.1 4.8z"/><g><path class="st1" d="M285.3.8h55v13.5h-20v63h-15v-63h-20V.8zM347.3.8H363c5.2 16.4 10.2 32.8 15.2 49.2 5.2-16.4 10.1-32.8 15.2-49.2h15.8c-8.4 25.5-16.8 51-25.3 76.5h-11.3c-8.5-25.5-17-51-25.3-76.5zM225.1 24.7c5.2.1 10.3.3 15.5.5-.6 6.9-.2 13.8-.3 20.7.1 4.7.1 10.1 3.3 13.9 4.5 5.5 13.8 5.9 18.7.7 1.9-2 2.8-4.6 3.7-7.2h15.6c-.8 6.5-3.9 12.5-8.6 17-12 11.5-34.2 9.3-43.5-4.5-3.6-5.3-4.3-12-4.6-18.2-.3-7.5-.2-15.2.2-22.9zM166.5 28.1c5-.6 10-1.1 15-1.6v5.2h30.2v13.7h-30.2v18H217c.1 4.6 0 9.2 0 13.7h-50.5v-49zM99.2 40.6c17.9-4.5 36-8.1 54.2-10.7-1.8 6.6-6.7 12-13.1 14.4 5.6 11 11.3 21.9 16.9 32.9-5.9.1-11.8 0-17.6.1-4.9-10.2-10-20.3-14.9-30.5h-10.5v30.5h-15c.1-12.3.1-24.5 0-36.7zM69.3 49.8c4.5-2.5 10-3.3 14.9-5.1v32.5h-15c.1-9.1-.1-18.2.1-27.4zM6 77.2c15.8-9 32.3-16.7 49.3-22.9-1 6.3-3.6 12.7-8.7 16.8-5.3 4.5-12.4 6.1-19.2 6.1-7.1 0-14.3.1-21.4 0z"/></g></svg>