<svg xmlns="http://www.w3.org/2000/svg" viewBox="0 0 1354.5 734.8" style="enable-background:new 0 0 1354.5 734.8" xml:space="preserve"><radialGradient id="a" cx="1096.231" cy="369.316" r="760.124" gradientTransform="matrix(1.3019 0 0 -1.3019 -200.708 844.788)" gradientUnits="userSpaceOnUse"><stop offset=".007" style="stop-color:#fff"/><stop offset=".03" style="stop-color:#cbffff"/><stop offset=".057" style="stop-color:#96ffff"/><stop offset=".084" style="stop-color:#68ffff"/><stop offset=".111" style="stop-color:#43ffff"/><stop offset=".138" style="stop-color:#25ffff"/><stop offset=".165" style="stop-color:#1ff"/><stop offset=".191" style="stop-color:#04ffff"/><stop offset=".216" style="stop-color:#0ff"/><stop offset="1" style="stop-color:#00f;stop-opacity:0"/></radialGradient><path d="M1243.1 356.2c-42.3-104-113.8-192.7-206.7-256.5C941.2 34.5 829.6 0 713.7 0 522.1 0 344.3 95.2 238.2 254.6c-1.2 1.7-1.4 3.9-.8 5.9.7 2.1 2.2 3.5 4.2 4.2l14.8 5.1c.9.3 1.8.4 2.6.4 2.7 0 5.3-1.4 6.9-3.6C314.6 195 380.5 135.5 456.5 94.4c78.5-42.4 167.4-65 257.1-65 108.4 0 213 32 302.6 92.4 87.4 59 155.2 141.4 196.2 238.1 1.2 2.9 4 4.8 7.2 4.8h17.7c2.1 0 4-1 5.1-2.7 1.2-1.8 1.4-3.9.7-5.8zM259 265.7h.3-.3zm956.8 96.6c.4.3.8.5 1.2.7-.4-.3-.8-.4-1.2-.7z" style="fill:url(#a)"/><path d="M957.3 475.7c-18.7 4.3-68.1 6.8-68.1 6.8L883 502s24.6-2.1 42.6-.3c0 0 5.9-.7 6.5 6.6.3 6.8-.5 14.1-.5 14.1s-.4 4.4-6.6 5.5c-6.8 1.2-53.1 2.9-53.1 2.9l-7.6 25.4s-2.7 5.9 3.5 4.2c5.9-1.6 54.4-10.7 60.8-9.4 6.8 1.7 14.3 10.7 12.1 19-2.6 10.2-51 41.1-80.6 38.9 0 0-15.5 1-28.6-19.9-12.2-19.9 4.7-57.8 4.7-57.8s-7.7-17.7-2.1-23.6c0 0 3.4-3 13-3.8l11.8-24.6s-13.5.9-21.6-9c-7.6-9.5-8.1-13.8-2.3-16.4 6.1-3 62.5-13.3 101.3-12 0 0 13.5-1.3 25.1 22.1-.2.1 5.5 9.6-4.1 11.8zm-145.9 94.5c-4.9 11.7-18.1 24.2-34.4 16.4-16.1-7.8-41.8-60.3-41.8-60.3s-9.8-19.5-11.6-19.1c0 0-2.1-3.8-3.4 17.6s.3 62.9-8.2 69.4c-8.1 6.5-17.8 3.9-22.9-3.8-4.6-7.6-6.5-25.5-4-57 3-31.5 10.3-65.1 19.7-75.6 9.4-10.4 16.9-2.9 19.8-.1 0 0 12.5 11.3 33.2 44.7l3.6 6.1s18.7 31.5 20.7 31.4c0 0 1.6 1.4 2.9.4 2-.5 1.2-10.7 1.2-10.7s-3.9-34.2-21-92.3c0 0-2.6-7.3-.8-14.1 1.7-6.9 8.6-3.6 8.6-3.6s26.6 13.3 39.3 56.5c12.6 43.5 4 82.4-.9 94.1zm-130.5-111c-2.2 4.4-3.5 10.8-14.7 12.5 0 0-107.1 7.3-112.2 14.8 0 0-3.8 4.4 2.1 5.7 5.9 1.2 30.1 4.4 41.8 5.1 12.5.1 54.7.5 69.8 19.4 0 0 9 9 8.6 29.3-.4 20.8-4 28.1-12.1 35.7-8.5 7-81.1 39.6-128-10.4 0 0-21.6-24.1 7.4-42.3 0 0 21-12.6 74.2 2.2 0 0 16.1 5.9 15.4 11.7-.9 6.2-13.3 12.9-31.2 12.5-17.4-.5-30.2-8.9-27.7-7.6 2.3.9-18.7-10.2-25.3-2.6-6.5 6.9-4.9 11.2 1.4 15.5 16.3 9.2 79.2 6 97.9-14.8 0 0 7.4-8.5-3.9-15.4-11.3-6.5-43.7-10.4-56.4-11.1-12.1-.7-57.2.1-63.7-11.8 0 0-6.5-8.1.7-31 7.6-24 60-33.2 82.7-35.3 0 0 62.4-2.2 73.8 10.5-.2.1 1.4 3.1-.6 7.4zm-177 140.4c-7.6 5.6-23.6 3.1-28.1-3.1-4.6-5.6-6.1-27.9-5.2-62.7.9-35.3 1.7-79 9.2-85.9 8.1-7 13-.9 16.1 3.9 3.4 4.7 7.4 9.9 8.3 21 .8 11.1 3.4 69.1 3.4 69.1s3.4 52.3-3.7 57.7zm16.2-187.2c-22 7.3-37.1 4.8-49.9-.7-5.6 9.8-8.9 12.8-13.1 13.4-6.2.7-11.8-9.4-12.9-12.6-1-2.5-4-6.6-.4-16.5-12.5-11.2-13.4-26.3-11.3-36.5 3.1-11.7 24.2-56.2 88.4-61.4 0 0 31.4-2.3 36.7 14.5h.9s30.5.1 29.8 27.2c-.3 27.2-33.8 61-68.2 72.6zm-59.8-60.2c-6.5 10.4-6.8 16.7-3.8 21 7.4-11.3 21-29.2 40.9-42.7-15.4 1.2-28.3 7.9-37.1 21.7zm88.6-17.5c-20.2 3-51.4 30.1-66.3 52.2 22.8 4.2 63 2.6 80.8-33.7 0 0 8.5-22.5-14.5-18.5zm547.8 209.7c-12.1 21.1-46.1 65.1-91.4 54.8-15 36.3-27.5 72.9-34.6 127.8 0 0-1.6 10.7-10.4 6.9-8.7-3.1-23.3-17.7-26.2-37.9-3.1-26.6 8.7-71.5 32.8-122.9-7-11.5-11.8-27.9-7.7-51.2 0 0 6.1-43.2 49.5-82.3 0 0 5.2-4.6 8.2-3.1 3.4 1.4 1.8 15.5-.9 22.3-2.7 6.8-22.1 40.4-22.1 40.4s-12.1 22.7-8.7 40.5c22.8-35 74.6-105.7 106.8-83.4 10.8 7.7 15.8 24.5 15.8 42.6-.3 16-4 32.9-11.1 45.5zm-9.3-55.4s-1.8-13.9-15.4 1.4c-11.7 12.9-32.8 37.2-49.9 70.2 17.8-2 35-11.7 40.2-16.7 8.5-7.5 28.2-27.8 25.1-54.9zm-632.1 17.7c-2.5 31.5-14.6 84.5-100.4 110.7-56.6 17.1-110.1 8.9-139.3 1.4-.7 11.6-2 16.5-3.8 18.5-2.5 2.5-21 13.1-31.1-2-4.6-7.2-6.9-20.2-8.2-31.8-65.6-30.2-95.8-73.7-97-75.6-1.4-1.4-16.4-17.1-1.4-36.2 14.1-17.3 60-34.6 101.4-41.7 1.4-35.4 5.6-62.1 10.5-74.3 6-14.2 13.5-1.4 20 8.2 5.5 7.2 8.7 38 9 62.6 27.1-1.3 43.1.7 73.3 6.1 39.3 7.2 65.6 27.2 63.3 50-1.7 22.4-22.3 31.6-30.1 32.3-8.2.7-21-5.2-21-5.2-8.7-4.2-.7-7.8 9.9-12.4 11.5-5.6 8.9-11.3 8.9-11.3-4.3-12.5-55.3-21.2-106.1-21.2-.3 28 1.2 74.5 1.8 101.5 35.5 6.8 62.1 5.5 62.1 5.5s129.7-3.6 133.6-86.4c4-82.9-129.3-162.5-227.8-187.7-98.4-25.8-154.1-7.8-159-5.3-5.2 2.6-.4 3.4-.4 3.4s5.3.8 14.6 3.9c9.8 3.1 2.2 8.2 2.2 8.2-16.8 5.3-35.7 2-39.3-5.7-3.6-7.7 2.5-14.6 9.5-24.5 7-10.4 14.7-10 14.7-10 121.7-42.2 270 34.1 270 34.1 139 70.3 162.7 152.9 160.1 184.9zm-367.4-4.3c-13.8 6.8-4.3 16.5-4.3 16.5 25.9 27.9 57.8 45.3 88.1 56.1 3.5-48 3-65 3.4-89.2-47.3 3.3-74.7 10.9-87.2 16.6zm1266.6-9.9v17.2c0 3.8-3 6.8-6.8 6.8h-81.9c0 4.3.1 8.1.1 11.6 0 25.4-1 46.1-3.5 69.4-.4 3.5-3.3 6.1-6.6 6.1h-17.7c-1.8 0-3.5-.8-4.7-2.1-1.2-1.3-1.8-3.1-1.6-4.9 2.5-23.2 3.6-43.6 3.6-68.5 0-3.6 0-7.4-.1-11.6h-81c-3.8 0-6.8-3-6.8-6.8v-17.2c0-3.8 3-6.8 6.8-6.8h79.8c-1.7-28-5.1-54.9-10.5-82.3-.3-1.7.1-3.4 1.2-4.7 1-1.3 2.6-2.1 4.3-2.1h19.1c3 0 5.5 2.1 6.1 5.1 5.3 28.3 8.7 55.7 10.4 84h82.9c3.8 0 6.9 3.1 6.9 6.8z" style="fill:#fff"/></svg>