<?xml version="1.0" encoding="utf-8"?>
<!-- Generator: Adobe Illustrator 24.1.1, SVG Export Plug-In . SVG Version: 6.00 Build 0)  -->
<svg version="1.1" id="Layer_1" xmlns="http://www.w3.org/2000/svg" xmlns:xlink="http://www.w3.org/1999/xlink" x="0px" y="0px"
	 viewBox="0 0 1354.5 734.8" style="enable-background:new 0 0 1354.5 734.8;" xml:space="preserve">
<style type="text/css">
	.st0{fill:url(#SVGID_1_);}
	.st1{fill:#FFFFFF;}
</style>
<radialGradient id="SVGID_1_" cx="1096.2306" cy="369.3161" r="760.124" gradientTransform="matrix(1.3019 0 0 -1.3019 -200.7084 844.7875)" gradientUnits="userSpaceOnUse">
	<stop  offset="7.000001e-03" style="stop-color:#FFFFFF"/>
	<stop  offset="3.000000e-02" style="stop-color:#CBFFFF"/>
	<stop  offset="5.700000e-02" style="stop-color:#96FFFF"/>
	<stop  offset="8.400000e-02" style="stop-color:#68FFFF"/>
	<stop  offset="0.111" style="stop-color:#43FFFF"/>
	<stop  offset="0.138" style="stop-color:#25FFFF"/>
	<stop  offset="0.165" style="stop-color:#11FFFF"/>
	<stop  offset="0.191" style="stop-color:#04FFFF"/>
	<stop  offset="0.216" style="stop-color:#00FFFF"/>
	<stop  offset="1" style="stop-color:#0000FF;stop-opacity:0"/>
</radialGradient>
<path class="st0" d="M1243.1,356.2c-42.3-104-113.8-192.7-206.7-256.5C941.2,34.5,829.6,0,713.7,0C522.1,0,344.3,95.2,238.2,254.6
	c-1.2,1.7-1.4,3.9-0.8,5.9c0.7,2.1,2.2,3.5,4.2,4.2l14.8,5.1c0.9,0.3,1.8,0.4,2.6,0.4c2.7,0,5.3-1.4,6.9-3.6
	c48.7-71.6,114.6-131.1,190.6-172.2c78.5-42.4,167.4-65,257.1-65c108.4,0,213,32,302.6,92.4c87.4,59,155.2,141.4,196.2,238.1
	c1.2,2.9,4,4.8,7.2,4.8h17.7c2.1,0,4-1,5.1-2.7C1243.6,360.2,1243.8,358.1,1243.1,356.2z M259,265.7c-0.4,0-0.8-0.1-1.2-0.3
	C258.2,265.6,258.6,265.7,259,265.7h0.3H259z M1215.8,362.3c0.4,0.3,0.8,0.5,1.2,0.7C1216.6,362.7,1216.2,362.6,1215.8,362.3z"/>
<g>
	<path class="st1" d="M957.3,475.7c-18.7,4.3-68.1,6.8-68.1,6.8L883,502c0,0,24.6-2.1,42.6-0.3c0,0,5.9-0.7,6.5,6.6
		c0.3,6.8-0.5,14.1-0.5,14.1s-0.4,4.4-6.6,5.5c-6.8,1.2-53.1,2.9-53.1,2.9l-7.6,25.4c0,0-2.7,5.9,3.5,4.2
		c5.9-1.6,54.4-10.7,60.8-9.4c6.8,1.7,14.3,10.7,12.1,19c-2.6,10.2-51,41.1-80.6,38.9c0,0-15.5,1-28.6-19.9
		c-12.2-19.9,4.7-57.8,4.7-57.8s-7.7-17.7-2.1-23.6c0,0,3.4-3,13-3.8l11.8-24.6c0,0-13.5,0.9-21.6-9c-7.6-9.5-8.1-13.8-2.3-16.4
		c6.1-3,62.5-13.3,101.3-12c0,0,13.5-1.3,25.1,22.1C961.2,464,966.9,473.5,957.3,475.7L957.3,475.7z M811.4,570.2
		c-4.9,11.7-18.1,24.2-34.4,16.4c-16.1-7.8-41.8-60.3-41.8-60.3s-9.8-19.5-11.6-19.1c0,0-2.1-3.8-3.4,17.6s0.3,62.9-8.2,69.4
		c-8.1,6.5-17.8,3.9-22.9-3.8c-4.6-7.6-6.5-25.5-4-57c3-31.5,10.3-65.1,19.7-75.6c9.4-10.4,16.9-2.9,19.8-0.1
		c0,0,12.5,11.3,33.2,44.7l3.6,6.1c0,0,18.7,31.5,20.7,31.4c0,0,1.6,1.4,2.9,0.4c2-0.5,1.2-10.7,1.2-10.7s-3.9-34.2-21-92.3
		c0,0-2.6-7.3-0.8-14.1c1.7-6.9,8.6-3.6,8.6-3.6s26.6,13.3,39.3,56.5C824.9,519.6,816.3,558.5,811.4,570.2L811.4,570.2z
		 M680.9,459.2c-2.2,4.4-3.5,10.8-14.7,12.5c0,0-107.1,7.3-112.2,14.8c0,0-3.8,4.4,2.1,5.7c5.9,1.2,30.1,4.4,41.8,5.1
		c12.5,0.1,54.7,0.5,69.8,19.4c0,0,9,9,8.6,29.3c-0.4,20.8-4,28.1-12.1,35.7c-8.5,7-81.1,39.6-128-10.4c0,0-21.6-24.1,7.4-42.3
		c0,0,21-12.6,74.2,2.2c0,0,16.1,5.9,15.4,11.7c-0.9,6.2-13.3,12.9-31.2,12.5c-17.4-0.5-30.2-8.9-27.7-7.6
		c2.3,0.9-18.7-10.2-25.3-2.6c-6.5,6.9-4.9,11.2,1.4,15.5c16.3,9.2,79.2,6,97.9-14.8c0,0,7.4-8.5-3.9-15.4
		c-11.3-6.5-43.7-10.4-56.4-11.1c-12.1-0.7-57.2,0.1-63.7-11.8c0,0-6.5-8.1,0.7-31c7.6-24,60-33.2,82.7-35.3c0,0,62.4-2.2,73.8,10.5
		C681.3,451.9,682.9,454.9,680.9,459.2L680.9,459.2z M503.9,599.6c-7.6,5.6-23.6,3.1-28.1-3.1c-4.6-5.6-6.1-27.9-5.2-62.7
		c0.9-35.3,1.7-79,9.2-85.9c8.1-7,13-0.9,16.1,3.9c3.4,4.7,7.4,9.9,8.3,21c0.8,11.1,3.4,69.1,3.4,69.1S511,594.2,503.9,599.6
		L503.9,599.6z M520.1,412.4c-22,7.3-37.1,4.8-49.9-0.7c-5.6,9.8-8.9,12.8-13.1,13.4c-6.2,0.7-11.8-9.4-12.9-12.6
		c-1-2.5-4-6.6-0.4-16.5c-12.5-11.2-13.4-26.3-11.3-36.5c3.1-11.7,24.2-56.2,88.4-61.4c0,0,31.4-2.3,36.7,14.5h0.9
		c0,0,30.5,0.1,29.8,27.2C588,367,554.5,400.8,520.1,412.4L520.1,412.4z M460.3,352.2c-6.5,10.4-6.8,16.7-3.8,21
		c7.4-11.3,21-29.2,40.9-42.7C482,331.7,469.1,338.4,460.3,352.2z M548.9,334.7c-20.2,3-51.4,30.1-66.3,52.2
		c22.8,4.2,63,2.6,80.8-33.7C563.4,353.2,571.9,330.7,548.9,334.7L548.9,334.7z M1096.7,544.4c-12.1,21.1-46.1,65.1-91.4,54.8
		c-15,36.3-27.5,72.9-34.6,127.8c0,0-1.6,10.7-10.4,6.9c-8.7-3.1-23.3-17.7-26.2-37.9c-3.1-26.6,8.7-71.5,32.8-122.9
		c-7-11.5-11.8-27.9-7.7-51.2c0,0,6.1-43.2,49.5-82.3c0,0,5.2-4.6,8.2-3.1c3.4,1.4,1.8,15.5-0.9,22.3c-2.7,6.8-22.1,40.4-22.1,40.4
		s-12.1,22.7-8.7,40.5c22.8-35,74.6-105.7,106.8-83.4c10.8,7.7,15.8,24.5,15.8,42.6C1107.5,514.9,1103.8,531.8,1096.7,544.4
		L1096.7,544.4z M1087.4,489c0,0-1.8-13.9-15.4,1.4c-11.7,12.9-32.8,37.2-49.9,70.2c17.8-2,35-11.7,40.2-16.7
		C1070.8,536.4,1090.5,516.1,1087.4,489L1087.4,489z M455.3,506.7c-2.5,31.5-14.6,84.5-100.4,110.7c-56.6,17.1-110.1,8.9-139.3,1.4
		c-0.7,11.6-2,16.5-3.8,18.5c-2.5,2.5-21,13.1-31.1-2c-4.6-7.2-6.9-20.2-8.2-31.8c-65.6-30.2-95.8-73.7-97-75.6
		c-1.4-1.4-16.4-17.1-1.4-36.2c14.1-17.3,60-34.6,101.4-41.7c1.4-35.4,5.6-62.1,10.5-74.3c6-14.2,13.5-1.4,20,8.2
		c5.5,7.2,8.7,38,9,62.6c27.1-1.3,43.1,0.7,73.3,6.1c39.3,7.2,65.6,27.2,63.3,50c-1.7,22.4-22.3,31.6-30.1,32.3
		c-8.2,0.7-21-5.2-21-5.2c-8.7-4.2-0.7-7.8,9.9-12.4c11.5-5.6,8.9-11.3,8.9-11.3c-4.3-12.5-55.3-21.2-106.1-21.2
		c-0.3,28,1.2,74.5,1.8,101.5c35.5,6.8,62.1,5.5,62.1,5.5s129.7-3.6,133.6-86.4c4-82.9-129.3-162.5-227.8-187.7
		c-98.4-25.8-154.1-7.8-159-5.3c-5.2,2.6-0.4,3.4-0.4,3.4s5.3,0.8,14.6,3.9c9.8,3.1,2.2,8.2,2.2,8.2c-16.8,5.3-35.7,2-39.3-5.7
		c-3.6-7.7,2.5-14.6,9.5-24.5c7-10.4,14.7-10,14.7-10c121.7-42.2,270,34.1,270,34.1C434.2,392.1,457.9,474.7,455.3,506.7
		L455.3,506.7z M87.9,502.4c-13.8,6.8-4.3,16.5-4.3,16.5c25.9,27.9,57.8,45.3,88.1,56.1c3.5-48,3-65,3.4-89.2
		C127.8,489.1,100.4,496.7,87.9,502.4z M1354.5,492.5v17.2c0,3.8-3,6.8-6.8,6.8h-81.9c0,4.3,0.1,8.1,0.1,11.6
		c0,25.4-1,46.1-3.5,69.4c-0.4,3.5-3.3,6.1-6.6,6.1h-17.7c-1.8,0-3.5-0.8-4.7-2.1c-1.2-1.3-1.8-3.1-1.6-4.9
		c2.5-23.2,3.6-43.6,3.6-68.5c0-3.6,0-7.4-0.1-11.6h-81c-3.8,0-6.8-3-6.8-6.8v-17.2c0-3.8,3-6.8,6.8-6.8h79.8
		c-1.7-28-5.1-54.9-10.5-82.3c-0.3-1.7,0.1-3.4,1.2-4.7c1-1.3,2.6-2.1,4.3-2.1h19.1c3,0,5.5,2.1,6.1,5.1c5.3,28.3,8.7,55.7,10.4,84
		h82.9C1351.4,485.7,1354.5,488.8,1354.5,492.5L1354.5,492.5z"/>
</g>
</svg>
