<svg xmlns="http://www.w3.org/2000/svg" viewBox="0 0 179 36" style="enable-background:new 0 0 179 36" xml:space="preserve"><path d="M99.4 0c6.6 0 8.4 3.9 7.9 8.2-.1.8-.2 1.9-.2 1.9H37.2s.2-1.4.4-3c.5-4.2 4-7.1 9.4-7.1h52.4zm7.2 14s-.2 1.4-.4 3c-.4 3.1-2.7 5.4-6.9 5.4H84.4L82.8 36H71l2.7-22h32.9zM4.4 0h31.7l-1.2 10.1H3.2L4.4 0zM2.7 13.9h31.7l-1 8.4H13.5l-.5 4.1h19.8L31.7 36H0l2.7-22.1zM110.7 0h25.8c4.1 0 8.3 1.9 7.5 8.5-.1 1.2-.2 1.6-.2 1.6h-34.3L110.7 0zm-4.4 36 2.7-22h11.8l-2.7 22h-11.8zm22.5 0 2.7-22h11.9l-2.7 22h-11.9zm-66-22c3.7 0 8.4 1.6 7.5 8.5-.2 1.2-.7 6.8-1.4 8.4-2 4.9-7.9 5-8.7 5.1H34.1l1.2-9.6h23l.5-4.1h-16c-4 0-6.9-2.6-6-8.4 4 0 23.9.1 26 .1z" style="fill:#fff"/><path d="m169.8 14.3 1.1-9.1h-9.2l-1.1 9.1H152l-1 9h8.6l-1.1 9.3h9.2l1.1-9.3h8.6l1-9h-8.6z" style="fill-rule:evenodd;clip-rule:evenodd;fill:#f9b300"/></svg>