<svg version="1.1" id="Layer_1_1_" xmlns="http://www.w3.org/2000/svg" x="0" y="0" viewBox="0 0 1100 190.6" style="enable-background:new 0 0 1100 190.6" xml:space="preserve"><style>.st0{fill:#fff}</style><path id="path3441" class="st0" d="M135.5 189.8H84.8v-72.3H52v72.3H0V3.3h51.9v69.6h32.8V3.3h50.7v186.5h.1zm232.4.8c51.9 0 94.3-43.2 94.3-95.8 0-53.4-42.4-94.7-94.3-94.7-52.6 0-79.2 38.2-85.6 53.8 0-23.1-23.1-50.7-49.9-50.7h-86.6v186.6h80.6c32.8 0 55.9-28 55.9-52.6 7.3 15.2 33.1 53.4 85.6 53.4zM220 114.8c7.5 0 13.5 7.3 13.5 15.6 0 8.7-6 16-13.5 16h-25.8v-31.6H220zm0-70c7.5 0 13.5 7.3 13.5 15.6S227.5 76 220 76h-25.8V44.8H220zm34.1 50c6-.4 15.8-7.3 19.5-11.4-1.4 5-1.4 20.8 0 25.8-4.1-6.1-13.5-13.3-19.5-14.4zm66.5 0c0-26.3 21.4-47.5 47.7-47.4 26.4.2 47.4 21.7 47.1 48.1-.4 26-21.4 46.9-47.4 46.9-26.2 0-47.4-21.2-47.4-47.6zm47.3 37.4c20.2 0 37.2-16.6 37.2-37.4s-17-37.2-37.2-37.2c-20.8 0-37.4 16.4-37.4 37.2s16.6 37.4 37.4 37.4z"/><path id="XMLID_1_" class="st0" d="M733.2 69.3c-1-45.2-33-69.1-72.2-69.1-21.5 0-40.9 7.2-54.1 21.2C593.7 7.4 574.3.2 552.8.2c-39.2 0-71.2 24-72.2 69.2V172.8c0 9.5 7.7 17.1 17.1 17.1h16.2c1.6 0 2.9-1.3 2.9-2.9V69.6c.7-22.3 16.5-34.1 36-34.1s35.3 11.8 36 34.1v103.1c0 9.5 7.7 17.1 17.1 17.1h16.2c1.6 0 2.9-1.3 2.9-2.9V69.5c.7-22.3 16.5-34.1 36-34.1s35.3 11.8 36 34.1v103.1c0 9.5 7.7 17.1 17.1 17.1h16.2c1.6 0 2.9-1.3 2.9-2.9V69.3c.1.2 0 .1 0 0zm364.7-66.2h-27.5c-7.6 0-14.7 3.8-19 10.1l-30.4 45c-4 5.9-12.6 5.9-16.6 0l-30.4-45c-4.2-6.3-11.4-10.1-19-10.1h-27.5c-1.7 0-2.7 1.9-1.8 3.3l54.2 80.4c3.9 5.8 3.9 13.4 0 19.2l-54.2 80.4c-1 1.4.1 3.3 1.8 3.3H955c7.6 0 14.7-3.8 19-10.1l30.4-45c4-5.9 12.6-5.9 16.6 0l30.4 45c4.2 6.3 11.4 10.1 19 10.1h27.5c1.7 0 2.7-1.9 1.8-3.3l-54.3-80.3c-3.9-5.8-3.9-13.4 0-19.2l54.2-80.4c1-1.4 0-3.4-1.7-3.4zm-184.6 0h-16.2c-8.2 0-15.1 5.8-16.8 13.5-14.4-11-32.5-16.6-52-16.6-47.4 0-85.9 33-85.9 95.3s38.4 95.3 85.9 95.3c19.4 0 37.3-5.5 51.7-16.3.8 8.7 8.1 15.6 17.1 15.6h16.2c1.6 0 2.9-1.3 2.9-2.9V6c-.1-1.6-1.3-2.9-2.9-2.9zm-85 152.1c-28.3 0-51.3-20.7-51.3-59.8s23-59.8 51.3-59.8 51.3 20.7 51.3 59.8-23 59.8-51.3 59.8z"/></svg>