<svg xmlns="http://www.w3.org/2000/svg" viewBox="0 0 2500 824" style="enable-background:new 0 0 2500 824" xml:space="preserve"><path d="M2499.9 256.9h-199V589c0 15-5.8 27.7-15 38.2-9.3 9.3-22 13.9-37 15H2133c-16.2-1.2-28.9-5.8-38.2-15-9.3-10.4-15-23.1-15-38.2V256.9h-199v349.5c1.2 46.3 9.3 86.8 28.9 119.2s45.1 56.7 78.7 72.9c34.7 16.2 74.1 25.5 119.2 25.5h193.3v-2.3c41.7 0 77.5-9.3 107.6-26.6 28.9-18.5 52.1-44 67.1-76.4 16.2-32.4 24.3-70.6 24.3-112.3V256.9zM508.2 277.8c-34.7-15-72.9-22-114.6-20.8H265.1l-49.8 5.8c-11.6 3.5-17.4 5.8-17.4 5.8V0H.1v824H198V490.7c1.2-13.9 5.8-27.8 16.2-37s22-15 38.2-15h115.7c13.9 0 26.6 5.8 37 15 10.4 9.3 15 23.1 16.2 37V824h197.9V465.2c0-49.8-10.4-90.3-30.1-121.5-20.7-30.1-47.4-52.1-80.9-65.9zm673.5 311.3c-1.2 15-5.8 27.8-15 38.2-10.4 9.3-23.2 13.9-38.2 15h-115.7c-15-1.2-27.8-5.8-37-15-10.4-10.4-15-23.1-16.2-38.2V256.9h-198v349.5c0 46.3 9.3 86.8 27.8 119.2s45.1 56.7 78.7 72.9C902.8 814.7 941 824 987.3 824h194.4v-2.3c41.7 0 77.5-9.3 106.5-26.6 28.9-18.5 52.1-44 68.3-76.4 15-32.4 23.1-70.6 24.3-112.3V256.9h-199.1v332.2zM1531.2 824h197.9V0h-197.9v824z" style="fill:#fff"/></svg>