<svg version="1.1" id="Layer_1" xmlns="http://www.w3.org/2000/svg" x="0" y="0" viewBox="0 0 227.6 58.4" style="enable-background:new 0 0 227.6 58.4" xml:space="preserve"><style>.st0{fill-rule:evenodd;clip-rule:evenodd}.st0,.st1{fill:#fff}</style><g id="IMDb-TV-Logo-Treatments"><g id="Secondary-_x28_16:9_x29_" transform="translate(-121 -771)"><g id="IMDbTV_CMYK_Black_Linear_1920x1080" transform="translate(0 619)"><g id="Group-2" transform="translate(121.305 152.383)"><g id="Group"><path id="Shape" class="st0" d="M110.7-.4v57.7h13.5l1-3.7c1.2 1.5 2.6 2.6 4 3.3 1.5.7 3.7 1.1 5.4 1.1 2.4 0 4.4-.6 6.1-1.9 1.7-1.2 2.8-2.7 3.3-4.4.5-1.7.7-4.3.7-7.7V27.9c0-3.5-.1-5.8-.2-6.8-.1-1.1-.6-2.2-1.4-3.3-.8-1.1-1.9-2-3.3-2.6-1.5-.6-3.2-.9-5.2-.9-1.7 0-3.9.3-5.4 1-1.5.7-2.8 1.7-4 3.1V-.4h-14.5zm19.6 43.7c0 2.8-.1 4.6-.4 5.3-.3.7-1.5 1.1-2.4 1.1-.9 0-1.5-.3-1.8-1.1-.3-.7-.5-2.3-.5-4.9V28.5c0-2.6.1-4.3.4-4.9.3-.6.9-1 1.7-1 .9 0 2.2.4 2.5 1.1.3.8.5 2.3.5 4.8v14.8z"/><path id="Rectangle-path" class="st0" d="M-.3-.4h15v57.7h-15z"/><path id="Shape_1_" class="st0" d="m46.7-.4-3.5 26.9-2.1-14.6c-.6-4.7-1.2-8.8-1.8-12.3H19.8v57.7H33l.1-38.1 5.5 38.1H48l5.3-38.9v38.9h13.1V-.4H46.7z"/><path id="Shape_2_" class="st0" d="M89.7 57.3c3.6 0 6.3-.2 8.1-.6 1.8-.4 3.3-1.1 4.5-2.1 1.2-1 2.1-2.3 2.6-4.1.5-1.7.8-5.2.8-10.4V19.9c0-5.5-.2-9.1-.5-11-.3-1.8-1.2-3.6-2.5-5.1-1.3-1.5-3.3-2.6-5.8-3.3-2.6-.7-6.8-1-14-1H71.5v57.7h18.2zm.2-47.3c.6.3 1 .9 1.2 1.6.2.7.3 2.4.3 5V39c0 3.9-.3 6.2-.8 7.1-.5.9-1.8 1.3-4 1.3V9.5c1.6 0 2.7.2 3.3.5z"/></g><g id="Group_1_" transform="translate(374.943 36.09)"><path id="Shape_3_" class="st1" d="M-208.6 21.5v-33.8h-12.3v-9.4h36.5v9.4h-12.3v33.8h-11.9z"/><path id="Shape_4_" class="st1" d="m-175.5 21.5-15.1-43.2h13.1l8.5 31.9 8.5-31.9h12.8l-15.1 43.2z"/></g></g></g></g></g></svg>