<svg version="1.1" id="Layer_1" xmlns="http://www.w3.org/2000/svg" x="0" y="0" viewBox="0 0 2101.8 1028.7" style="enable-background:new 0 0 2101.8 1028.7" xml:space="preserve"><style>.st0{fill-rule:evenodd;clip-rule:evenodd}</style><path class="st0" d="M1981.7 0H120.1C53.9 0 0 53.9 0 120.2v788.4c0 66.3 53.9 120.2 120.1 120.2h1861.6c66.2 0 120.1-53.9 120.1-120.2V120.2c0-66.3-53.9-120.2-120.1-120.2zm0 21.3c54.7 0 98.8 44.2 98.8 98.9v788.4c0 54.7-44.2 98.9-98.8 98.9H120.1c-54.6 0-98.8-44.2-98.8-98.9V120.2c0-54.7 44.2-98.9 98.8-98.9h1861.6z"/><path class="st0" d="M302.6 217.9h155.5v600H302.6zM790.1 217.9l-36 280.4L732 345.8c-6.7-48.9-12.8-91.6-18.9-128H511.3v600h136.3l.6-396.1 57.3 396.1h97.1L857.3 413l.3 404.8h136v-600H790.1zM1236.9 326.1c6.1 3.5 10.2 9 11.9 16.9 1.7 7.6 2.6 25 2.6 52.1v232.4c0 40.2-2.6 64.6-7.9 73.6-5.2 9-18.9 13.3-41.3 13.3V320.6c17 0 28.6 1.7 34.7 5.5zm-1.4 491.8c37.2 0 65.1-2 83.7-6.1 18.3-4.1 34-11 46.5-21.5 12.5-10.2 21.5-24.4 26.5-42.5 5.2-18 8.1-54.1 8.1-107.9V429.3c0-56.7-2.3-94.8-5.5-114.3-3.5-19.2-12.2-37-26.2-52.6-13.7-15.7-34-27.1-60.5-34-26.5-7-70.1-10.5-145.3-10.5h-116v600h188.7zM1655.8 672.5c0 28.8-1.5 47.4-4.4 54.9-2.9 7.6-15.4 11.3-25 11.3-9.3 0-15.4-3.5-18.6-11-2.9-7.3-4.7-24.2-4.7-50.6V518.6c0-27.4 1.4-44.2 4.1-51.2 2.9-6.7 9-10.2 18-10.2 9.6 0 22.4 4.1 25.6 11.6 3.2 7.8 4.9 24.4 4.9 49.7v154zm-202.6-454.6v600h140.1l9.9-38.1c12.5 15.4 26.5 26.8 41.8 34.6 15.4 7.5 38.1 11.3 55.8 11.3 24.4 0 45.9-6.4 63.7-19.5 18-12.8 29.4-28.2 34-45.7 4.9-17.7 7.3-44.5 7.3-80.3V511.9c0-36.4-.6-59.9-2.3-71-1.5-11-6.4-22.4-14.3-34.1-8.2-11.6-19.5-20.6-34.6-27-15.4-6.4-33.1-9.6-53.8-9.6-17.7 0-40.7 3.5-56.1 10.8-15.1 7-29.1 17.7-41.6 32V217.9h-149.9z"/></svg>