<?xml version="1.0" encoding="utf-8"?>
<!-- Generator: Adobe Illustrator 24.1.1, SVG Export Plug-In . SVG Version: 6.00 Build 0)  -->
<svg version="1.1" id="Layer_1" xmlns="http://www.w3.org/2000/svg" xmlns:xlink="http://www.w3.org/1999/xlink" x="0px" y="0px"
	 viewBox="0 0 227.6 58.4" style="enable-background:new 0 0 227.6 58.4;" xml:space="preserve">
<style type="text/css">
	.st0{fill-rule:evenodd;clip-rule:evenodd;fill:#FFFFFF;}
	.st1{fill:#FFFFFF;}
</style>
<desc>IMDb TV</desc>
<g id="IMDb-TV-Logo-Treatments">
	<g id="Secondary-_x28_16:9_x29_" transform="translate(-121.000000, -771.000000)">
		<g id="IMDbTV_CMYK_Black_Linear_1920x1080" transform="translate(0.000000, 619.000000)">
			<g id="Group-2" transform="translate(121.305170, 152.383354)">
				<g id="Group" transform="translate(0.000000, -0.000000)">
					<path id="Shape" class="st0" d="M110.7-0.4v57.7h13.5l1-3.7c1.2,1.5,2.6,2.6,4,3.3c1.5,0.7,3.7,1.1,5.4,1.1
						c2.4,0,4.4-0.6,6.1-1.9c1.7-1.2,2.8-2.7,3.3-4.4c0.5-1.7,0.7-4.3,0.7-7.7V27.9c0-3.5-0.1-5.8-0.2-6.8c-0.1-1.1-0.6-2.2-1.4-3.3
						c-0.8-1.1-1.9-2-3.3-2.6c-1.5-0.6-3.2-0.9-5.2-0.9c-1.7,0-3.9,0.3-5.4,1c-1.5,0.7-2.8,1.7-4,3.1V-0.4H110.7z M130.3,43.3
						c0,2.8-0.1,4.6-0.4,5.3c-0.3,0.7-1.5,1.1-2.4,1.1c-0.9,0-1.5-0.3-1.8-1.1c-0.3-0.7-0.5-2.3-0.5-4.9V28.5c0-2.6,0.1-4.3,0.4-4.9
						c0.3-0.6,0.9-1,1.7-1c0.9,0,2.2,0.4,2.5,1.1c0.3,0.8,0.5,2.3,0.5,4.8V43.3L130.3,43.3z"/>
					<polygon id="Rectangle-path" class="st0" points="-0.3,-0.4 14.7,-0.4 14.7,57.3 -0.3,57.3 					"/>
					<path id="Shape_1_" class="st0" d="M46.7-0.4l-3.5,26.9l-2.1-14.6c-0.6-4.7-1.2-8.8-1.8-12.3H19.8v57.7H33l0.1-38.1l5.5,38.1
						H48l5.3-38.9l0,38.9h13.1V-0.4H46.7z"/>
					<path id="Shape_2_" class="st0" d="M89.7,57.3c3.6,0,6.3-0.2,8.1-0.6c1.8-0.4,3.3-1.1,4.5-2.1c1.2-1,2.1-2.3,2.6-4.1
						c0.5-1.7,0.8-5.2,0.8-10.4V19.9c0-5.5-0.2-9.1-0.5-11c-0.3-1.8-1.2-3.6-2.5-5.1c-1.3-1.5-3.3-2.6-5.8-3.3c-2.6-0.7-6.8-1-14-1
						H71.5v57.7H89.7z M89.9,10c0.6,0.3,1,0.9,1.2,1.6c0.2,0.7,0.3,2.4,0.3,5V39c0,3.9-0.3,6.2-0.8,7.1c-0.5,0.9-1.8,1.3-4,1.3V9.5
						C88.2,9.5,89.3,9.7,89.9,10z"/>
				</g>
				<g id="Group_1_" transform="translate(374.943253, 36.090794)">
					<polygon id="Shape_3_" class="st1" points="-208.6,21.5 -208.6,-12.3 -220.9,-12.3 -220.9,-21.7 -184.4,-21.7 -184.4,-12.3 
						-196.7,-12.3 -196.7,21.5 -208.6,21.5 					"/>
					<polygon id="Shape_4_" class="st1" points="-175.5,21.5 -190.6,-21.7 -177.5,-21.7 -169,10.2 -160.5,-21.7 -147.7,-21.7 
						-162.8,21.5 					"/>
				</g>
			</g>
		</g>
	</g>
</g>
</svg>
