<svg xmlns="http://www.w3.org/2000/svg" viewBox="0 0 1925.9 585.8" style="enable-background:new 0 0 1925.9 585.8" xml:space="preserve"><path d="M144.2.1v42.6C129 25.9 105.8.1 105.8.1H0l.1 525.4L61 573.6l63.5-8 .5-46.6c20.9 17.2 49.4 40.6 49.4 40.6L278.5 549V54.2L222 .2 144.2.1zM785.1 0H604.2v70s47.8 37.6 54.4 42.7v360.7l59.9 48 72.4-1.8V112.7c13.1-.1 53.5-.4 53.5-.4V61.4L789.5 0h-4.4zm731 .1h-71.2V483l60.8 56.4 71.9 6V55.5L1520.2.1h-4.1zM1870 295.3l43.1-236L1855.2.1h-75.4s-3.9 24.3-6.4 39.6C1758.5 23.5 1736.9.1 1736.9.1h-77.7s44.3 232 45 235.3c-.6 3.4-42.5 264.1-42.5 264.1l82.3 62.6 49.2 5.9v-44l67.7 52.7 65 8.9c0 .2-55.2-286.7-55.9-290.3zm-549.3 104.6V53.7L1264.1 0H1188v471.1l60.3 52.8 137.7 6.8-3-61c0 .2-48.4-54.3-62.3-69.8zM494.9 104.6H554V54L497.6 0h-4L362.1.1v490.1l59.5 46.9 132.5-8.3v-54.2L495 409.2v-87.6h59.9V267s-54.7-54.7-59.9-60l-.1-102.4zm552.1-.1h59.1V54l-56.4-54h-4L914.1.1v467.8l60.3 50.1 72.5.5v-197h59.9v-54.6s-54.7-54.7-59.9-60V104.5z"/><path d="M1460.6 474s18.4.9 49.9 3.2V14.1l-49.9.1V474zM620 60.3h54.4v402.9s11.7-.9 49.8-1.8l.3-401h55V14.2H620v46.1zM161.6 412.2l-3.5.4L97.3 14.2l-80.9-.1v500.1s16.1-2.3 50.3-6.2l-3.5-380.1 3.5-.3L124.4 502s19.8-2.3 87-9V14.2h-51.6l1.8 398zm1687-398.1h-56.3L1764 192.8h-3.3l-29.4-178.7h-55.2l43.1 221-41.7 258.3 53.7 5.1 27.6-213 3.4.1 26.8 218.9 58.9 6.5-42.1-269.7 42.8-227.2zM1254 14l-50.1.1v447.5s34 1 115.9 4.6v-45.4s-9.2-.9-65.8-2.9V14zM377.9 479.5s29.6-2.1 115.2-7.6v-45.7l-64.7 4.4V270.5l64.7-.1v-46.6h-64.9V60.4h65.2V14.1H378l-.1 465.4zm552-21.6h50.5V270.5l64.7-.1v-46.6l-65 .1V60.4h65.2V14.1H929.9v443.8z" style="fill:#fff"/></svg>