<svg xmlns="http://www.w3.org/2000/svg" viewBox="0 0 1000 622.2" style="enable-background:new 0 0 1000 622.2" xml:space="preserve"><path d="M445.5 319.9c-2.5-1-6.5-5.5.2-18.1l15.6-32.6c.5-1-.7-2.2-1.4-1.4l-13.6 13.7c-6.4 6.7-17.4 25.6-19.5 29.1L410.2 338c1.2 0 2.3.9 2.3 2.2 0 .4-.1.8-.3 1.2l-15.1 25.4c-3.7 6.3 2.9 10.7 3.8 9.3 23.8-38.3 37.6-35.2 37.6-35.2l7.9-18.4c.4-.9 0-2-.9-2.4.1-.1 0-.1 0-.2zM499.5 0C363.6 0 253.4 110.1 253.4 246c-.1 52.6 16.8 103.8 48.1 146.1 10.3-4.5 16.1-11.1 20.2-16.2l45.8-58.6c1-1.2 2.2-2.2 3.7-2.8l6.9-3 75.3-95.5 10.9-8.5 22.5-31.2c.6-.8 1.3-1.5 2.1-2.1l9.8-7.1c2.4-1.8 5.7-1.8 8.1-.1l11.9 8.3c6.3 4.4 11.4 10.3 14.9 17.2l47.6 83.6c.8 1.6 2.1 2.9 3.7 3.6 9.3 4.6 15 5.5 27.3 18.7 5.7 6.2 30.7 34.1 65.7 77.5 5.1 7 11.9 12.5 19.8 16 31.2-42.2 48-93.4 48-145.9C745.6 110.1 635.4 0 499.5 0zM319.8 259.5l-16-5.2-9.9 13.6v-16.8l-16-5.2 16-5.2V224l9.9 13.6 16-5.2-9.9 13.6 9.9 13.5zm-3.8 54.9-5.2 15.9-5.2-15.9h-16.8l13.6-9.9-5.2-15.9 13.6 9.9 13.6-9.9-5.2 15.9 13.6 9.9H316zm3.2-127 5.2 15.9-13.6-9.9-13.6 9.9 5.2-15.9-13.6-9.9h16.8l5.2-15.9 5.2 15.9h16.8l-13.6 9.9zm26.9-36-9.9-13.6-16 5.2 9.9-13.6-9.9-13.6 16 5.2 9.9-13.6v16.8l16 5.2-16 5.2v16.8zm42-58.7-5.2 15.9-5.2-15.9H361l13.6-9.9-5.2-15.9 13.6 9.9 13.6-9.9-5.2 16 13.6 9.9-16.9-.1zm52.8-26.9L431 79.4V62.6l-16-5.2 16-5.2V35.4l9.9 13.6 16-5.2-9.9 13.6 9.9 13.6-16-5.2zm67-15.4 5.2 15.9-13.6-9.9-13.5 9.9 5.2-15.9-13.6-9.9h16.8l5.2-15.9 5.2 15.9h16.8l-13.7 9.9zM568 62.6v16.8l-9.9-13.6-16 5.2 9.9-13.6-9.9-13.6 16 5.2 9.9-13.6v16.8l16 5.2-16 5.2zm111.3 169.8 16 5.2 9.9-13.6v16.8l16 5.2-16 5.2V268l-9.9-13.6-16 5.2 9.9-13.6-9.9-13.6zm-63.1-123.8L611 92.7h-16.8l13.6-9.9-5.2-15.9 13.6 9.9 13.6-9.9-5.2 15.9 13.6 9.9h-16.8l-5.2 15.9zm36.7 42.8v-16.8l-16-5.2 16-5.2v-16.8l9.9 13.6 16-5.2-9.9 13.6 9.9 13.6-16-5.2-9.9 13.6zm30.1 26.2 5.2-15.9 5.2 15.9h16.8l-13.6 9.9 5.2 15.9-13.6-9.9-13.6 9.9 5.2-15.9-13.6-9.9H683zm10.4 136.8-5.2 15.9-5.2-15.9h-16.8l13.6-9.9-5.2-15.9 13.6 9.9 13.6-9.9-5.2 15.9 13.6 9.9h-16.8zm-104.7 73.7c1.2-1.7 3.1-6.4-.5-15.2l-10.9-29.3c-1.5-3.7 1.8-6 3.9-3.5 0 0 20.6 23.7 25.9 33.6l10.1 16.8c8.7.6 32.8 1.2 56 1.2-2.3-2.3-4.5-4.8-6.5-7.5-39.6-49.1-64.7-76.3-64.9-76.6-8-8.7-11.7-10.4-17.8-13.2-.9-.4-1.8-.8-2.8-1.3v7.4c.1.5-.3 1-.8 1-.4 0-.8-.2-1-.6L521.3 199l-.2-.3c-2.4-4.8-6-9-10.4-12.1l-5.7-4-27.8 64c3.3 0 6 2.7 6 6 0 .8-.2 1.6-.5 2.4L457 314.3h23.5c9.1 0 18.1 1.8 26.5 5.2l6.2 2.5s-18.7 38.5-18.7 58.8c0 3.7.5 7.4 1.5 10.9h43.2l-2-12.2c17.1 4 34.2 6.8 51.5 8.6zm-333.1 62.4c0-39.6-42-58.7-91.9-58.7-53.4 0-102.4 23.7-120.4 60.3-5 9.8-7.5 20.6-7.5 31.5-.2 9.5 2.4 18.8 7.5 26.8C51 521.9 64.8 529 85 529c24.8 0 44.4-13.6 44.4-37.2 0 0 .4-6.6-7.3-6.6-6.2 0-7.9 4.4-7.7 6.6.9 18.5-10.1 33.4-29.7 33.4-22 0-31.2-18.7-31.2-38.7 0-40.9 30.8-68 62.9-79.8 15-5.7 30.9-8.5 47-8.3 36.3 0 66.1 13.9 66.1 51.4 0 31.2-26.2 57.8-57.6 60.2l1.3-4.2c6.4-22.9 14.3-48.1 27.2-66.6.7-1.1 2-2.9 3.5-4.8l-1.8-2.2c-2.7 1.7-5.4 3.5-7.9 5.5-60.2 47-62 179-142.2 179-2.8 0-5.5-.2-8.3-.6-16.9-2.7-25.7-13.9-25.7-29.5 0-3.1 1.1-7.3 1.1-9.7.1-4.4-3.4-8.1-7.8-8.3h-1c-7.2 0-10.1 5.7-10.3 13.8-.5 23.3 16.7 36.9 43.3 39.4 2.9.2 5.9.4 9 .4 62.6 0 100.9-47.3 117.3-104.7 8.3-1 16.4-2.7 24.4-5.1 29-8.1 61.6-27.6 61.6-61.9zm596.1 13.8h-22l-4.9 11.6-8.6 19.4h-10.3l-3.1 6.6h10.7l-12.9 28.4c-9.2 20-23.5 39.6-31.7 39.6-1.8 0-2.9-.7-2.9-2.6 0-1.8.5-3.5 2.6-8.6 2.6-6.1 6.8-14.9 9.9-21.3 4.6-9.4 11.9-23.8 11.9-31 0-7.2-4.6-12.8-13.6-12.8-10.1 0-19.3 6.1-27.7 14.9l5.5-13.2h-20.7L717 533.8c-6.8 13.6-20.6 36.1-29.2 36.1-1.8 0-2.6-1.1-2.6-2.9.2-1.6.6-3.3 1.3-4.8.7-1.7 10.8-25.3 10.8-25.3l18.4-42h-22.4l-17.8 40.9c-5.5 12.7-19.4 34.1-28.4 34.1-1.6.2-3-1-3.1-2.6v-.7c0-2.2 1.7-6.2 2.9-9.2l9.4-20.5 19.3-42h-22.2l-4.4 9.5c-3.3 6.4-8.8 13.9-17.6 13.9-4.2 0-6.2-1.6-7.2-3.3-1.3-14.1-10.3-21.6-23.5-21.6-18.4 0-31.4 10.8-40 24-5.7 9.1-10.1 18.9-13.2 29.2-7.9 13-16.1 23.1-22.8 23.1-1.7 0-2.8-.9-2.8-3.1s2.2-7.2 2.9-9l14.5-30.8c4-9.5 6.8-15.8 6.8-22 0-6.6-4.6-11.4-12.1-11.4-10.5 0-21.8 6.1-30.8 16 .3-1.6.4-3.2.4-4.8 0-7.3-3.7-11.2-11.2-11.2-9.5 0-19.4 5.7-28.4 16l5.9-14.3h-20.2l-17.1 38.5c-8.1 18.2-21.1 36.1-28.4 36.1-1.6 0-2.8-.9-2.8-3.1 0-3.5 3.9-12.1 5.3-15.6l22.6-51.2c1.7-3.9-9.2-6.2-22.9-6.2-14.1 0-28.6 7-39.3 16-7.5 6.2-13 9.4-15.8 9.4-.9.2-1.8-.4-2-1.3v-.4c0-3.1 7.5-11.9 7.5-18.7 0-3.1-1.6-5.1-5.9-5.1-8.1 0-17.6 7.7-24.6 15.8l5.9-14.1h-19.8l-17.1 38.5c-8.1 18.2-21.5 37.1-28.8 37.1-1.7 0-2.7-.9-2.7-3.1 0-3.5 3.7-11.9 5.7-16.3l22.6-51.4c1.7-3.9-9.2-6.2-22.9-6.2-20.4 0-40.2 13.8-50.6 27.9-11.6 15.2-19.4 31.4-19.6 44.6-.2 10.6 5.3 17.2 16.3 17.2 12.3 0 22.2-9.7 27.9-17.1-.3 1.5-.6 2.9-.7 4.4 0 7.3 2.9 12.7 11.9 12.7 7.9 0 18.4-6.6 26.8-17.1l-6.8 15.6h21.5l21.1-47.9c7-15.6 14.9-23.7 17.1-23.7.5-.1 1 .2 1.1.7v.2c0 1.7-3.3 6.1-3.3 10.1s2.2 7.2 8.1 7.2c4.6 0 9.7-2.2 14.3-5.1-10.8 14.7-18.2 30.1-18.2 42.7-.2 10.6 5.3 17.2 16.3 17.2 11.6 0 22.4-11 28.3-18.3-.2 1.7-.3 3.4-.4 5.1 0 7.2 4 13.2 12.3 13.2 9.2 0 16.5-5.7 25.7-16.9l-6.8 15.4h22l20.2-45.7c8.8-19.8 20.7-30.5 26.6-30.5 1.5-.2 2.8.9 2.9 2.4v.5c-.2 2.2-.9 4.4-1.8 6.4L452 582h22.6l20.6-46.6c8.8-20 18.5-29.7 25.9-29.7 2.2 0 3.1 1.1 3.1 3.5-.2 2.6-.9 5-2 7.3l-19.8 42.2c-1.8 4.1-2.9 8.4-3.3 12.8 0 6.4 3.5 12.1 13.4 12.1 12.9 0 22.6-9.7 33.6-24.2v3.1c.9 11.6 7.3 21.6 24.4 21.6 20.2 0 36.5-13.9 46.4-36.1 3.7-7.8 6.2-16.2 7.2-24.8 2.2 1.1 4.7 1.6 7.2 1.5 3.3 0 6.6-.8 9.5-2.4l-3.5 7.5c-4 8.4-8.5 17.8-11.9 25.7-2.2 4.7-3.5 9.7-3.9 14.8 0 7.9 4.4 13.6 13.4 13.6s21.3-8.4 30.1-20.4h.2c-.6 2.5-.9 5-.9 7.5 0 6.6 2 12.8 11.2 12.8 10.7 0 18.9-7.7 27-17.4l-6.8 15.4h22.2l17.8-40.4c10.1-22.7 20.2-36.5 29.5-36.5 1.6-.1 3 1.1 3.1 2.8v.5c0 3.9-5.5 14.3-10.5 24.8-4.6 9.5-8.1 16.9-10.5 22.6-2.2 4.8-3.5 10-3.9 15.2 0 7 3.9 12.3 12.5 12.3 12.8 0 25.9-12.5 32.8-21.8-1.6 4.5-2.4 9.2-2.6 13.9 0 12.8 7.7 19.3 18.5 19.3 7.2-.1 14.2-2.4 20-6.6 8.4-5.9 15.2-14.7 20.9-22.7l-3.9-3.7c-5.3 7.5-11.2 14.7-17.3 19.1-3.2 2.7-7.2 4.2-11.4 4.4-4.6 0-7.5-2.4-7.5-8.3s2.7-13.8 7-24.4c.2-.2 6.2-13.8 11.9-26.8 4.8-11 9.5-21.6 10.5-23.8h14.5l2.9-6.6h-14.3l13.8-30.8zm-626 105.8c-3.1 0-5.3-1.1-5.3-5.1.2-10.8 9.2-30.1 20.4-45.5C248.7 508.9 259 501 270 501l-14 31.2c-10.5 23.4-21.8 37.9-30.3 37.9zm137.3 0c-3.1 0-5.3-1.1-5.5-5.1.2-10.8 9.2-30.1 20.4-45.5C385.7 508.9 396 501 407 501l-14 31.2c-10.6 24-21.4 37.9-30 37.9zm243.7-60.7c-.5 11.9-11 40.7-23.3 58-4.9 7-9.2 9-12.8 9-5.1 0-6.6-4.2-5.9-10.5 1.1-10.8 10.1-36.1 22.6-53.6 5.7-7.9 9.5-11.2 13.9-11.2 4.4.1 5.7 3.7 5.5 8.3zm342.5-14.1 20.2-46.6h-23.9l-20.2 46.6h-50.8l-8.5 19.6h50.9l-20.2 46.6h23.9l20.2-46.6h50.8l8.5-19.6h-50.9z" style="fill:#fff"/></svg>