<svg xmlns="http://www.w3.org/2000/svg" viewBox="0 0 1000 308" style="enable-background:new 0 0 1000 308" xml:space="preserve"><path d="M64.3 95.1C28.8 95.1 0 124 0 159.4V308h30.5v-82.5l11.2 11.8 44.8-17.6c25.5-10 42.1-33 42.1-60.3-.1-35.4-28.9-64.3-64.3-64.3zm11.4 97.7-45.2 17.6v-51c0-20.5 15.3-35.2 33.8-35.2s33.8 14.9 33.8 35.2c0 12.9-6.3 27-22.4 33.4zM602 95.1c-35.4 0-64.3 28.8-64.3 64.3s28.8 64.3 64.3 64.3 64.3-28.8 64.3-64.3-28.9-64.3-64.3-64.3zm0 99.6c-19.5 0-33.8-15.5-33.8-35.2s14.7-35.2 33.8-35.2c19.5 0 33.8 15.5 33.8 35.2s-14.3 35.2-33.8 35.2zm139.1-70.5c13.3 0 24 7.3 29.6 18l23.8-18.2c-11.6-17.2-31.1-28.6-53.5-28.6-35.5 0-64.3 28.8-64.3 64.3S705.5 224 741 224c22.2 0 41.9-11.4 53.5-28.6L770.7 177c-5.6 10.8-16.4 18-29.6 18-19.5 0-33.8-15.5-33.8-35.2s14.7-35.6 33.8-35.6zm-260 0c13.3 0 24.1 7.3 29.6 18l23.8-18.2c-11.6-17.2-31.1-28.6-53.5-28.6-35.4 0-64.3 28.8-64.3 64.3S445.5 224 481 224c22.2 0 41.9-11.4 53.5-28.6L510.8 177c-5.6 10.8-16.4 18-29.6 18-19.5 0-33.8-15.5-33.8-35.2s14.5-35.6 33.7-35.6zm-106.5-13.7c-10.4-10.8-24-15.3-38.4-15.3-29.9 0-60.1 27.2-60.1 64.3s30.3 64.3 60.1 64.3c14.3 0 28-4.6 38.4-15.3v11.6h30.5v-121h-30.5v11.4zm-33.8 84.2c-19.5 0-34.2-15.5-34.2-35.2s15.1-35.2 34.2-35.2c19.5 0 33.8 15.5 33.8 35.2s-14.3 35.2-33.8 35.2zm538.6-39.6h-13.7l52.9-56.2h-39.2l-42.7 46V33h-30.5v187h30.5v-34.4l16.8-17.8 35.9 52.2h36.9l-46.9-64.9zm-676.7-60c-35.4 0-64.3 28.8-64.3 64.3s28.8 64.3 64.3 64.3c21.1 0 41-10.2 52.4-25.9l-24.5-17c-2.9 4.8-12.2 13.9-28 13.9-14.5 0-26.3-8.7-31.3-21.3H264c1-4.6 1.5-9.1 1.5-13.9.3-35.5-27.3-64.4-62.8-64.4zm-31.1 50.4c5-12.6 16.8-21.3 31.1-21.3 14.5 0 25.5 8.7 30.1 21.3h-61.2z" style="fill:#fff"/><path d="M981.6 201.7c-10.2 0-18.5 8.3-18.5 18.5s8.3 18.4 18.5 18.4 18.4-8.3 18.4-18.4c0-10.2-8.3-18.5-18.4-18.5z" style="fill:#069de0"/><path d="M981.6 151.3c-10.2 0-18.5 8.3-18.5 18.5s8.3 18.4 18.5 18.4 18.4-8.3 18.4-18.4c-.2-10.4-8.3-18.5-18.4-18.5z" style="fill:#6e55dc"/><path d="M981.6 252.1c-10.2 0-18.5 8.3-18.5 18.5s8.3 18.4 18.5 18.4 18.4-8.3 18.4-18.4c0-10.2-8.3-18.5-18.4-18.5z" style="fill:#05ac3f"/><path d="M981.6 100.7c-10.2 0-18.5 8.3-18.5 18.5s8.3 18.4 18.5 18.4 18.4-8.3 18.4-18.4c-.2-10.2-8.3-18.5-18.4-18.5z" style="fill:#ef1541"/><path d="M981.6 50.4c-10.2 0-18.5 8.3-18.5 18.5s8.3 18.4 18.5 18.4S1000 79 1000 68.9c-.2-10.2-8.3-18.5-18.4-18.5z" style="fill:#ff7112"/><path d="M981.6 0c-10.2 0-18.5 8.3-18.5 18.5s8.3 18.4 18.5 18.4 18.4-8.3 18.4-18.4C999.8 8.3 991.7 0 981.6 0z" style="fill:#fccc12"/></svg>