<svg version="1.1" id="layer" xmlns="http://www.w3.org/2000/svg" x="0" y="0" viewBox="0 0 521.8 128.3" style="enable-background:new 0 0 521.8 128.3" xml:space="preserve"><style>.st0{fill:#fff}</style><path id="Shape" class="st0" d="M333 20.4c-24.2 0-43.8 19.6-43.8 43.8S308.8 108 333 108s43.8-19.6 43.8-43.8-19.7-43.8-43.8-43.8zm0 63.9c-11.1 0-20.1-9-20.1-20.1s9-20.1 20.1-20.1 20.1 9 20.1 20.1c0 5.3-2.1 10.4-5.9 14.2s-8.9 5.9-14.2 5.9zm-70.2-39.7v27.1c0 8.3 3.7 12 12 12h8.4v22.6H271c-10.1 0-18.5-3-24.1-8.6s-8.6-13.9-8.6-24V44.6h-15.1V22.1h15.1V9.9L262.8 0v22.1h20.4v22.5h-20.4zm-49.2-22.5v46.1c0 14.2-7.5 27.4-19.8 34.6-12.3 7.1-27.5 7.1-39.9 0-12.3-7.1-19.9-20.3-19.8-34.6V32.9l24.4-9.8V69c0 8.5 6.9 15.4 15.4 15.4s15.4-6.9 15.4-15.4V32.1l24.3-10zM123.5 0v106.3H99V9.9L123.5 0zM48.6 20.4c-10.2 0-18.9 3.5-25.4 10.1l-3.4-8.2-19.8 8v98h24.5v-29c6.4 5.8 14.6 8.5 24.1 8.5 11.1.1 21.7-4.6 29.1-12.8 7.5-8.1 11.6-19.1 11.6-30.8 0-24.5-17.9-43.8-40.7-43.8zm-3.7 63.9c-11.3 0-20.4-9-20.4-20.1s9.1-20.1 20.4-20.1 20.4 9 20.4 20.1-9.1 20.1-20.4 20.1z"/><path id="Path" d="M439.7 64.2c0-34.4 3.2-43 3.2-43l-10.2.2c-24.2.5-43.8 18.7-43.8 42.8s19.6 42.3 43.8 42.8l10.2.2c.1 0-3.2-8.6-3.2-43" style="fill:#ff2cd2"/><path id="Path_1_" d="M439.7 64.2c0-27.5 14.9-43.3 14.9-43.3l-11.7.2c-24.2.5-43.7 18.9-43.7 43s19.6 42.5 43.8 43l11.7.2c-.1.2-15-15.6-15-43.1" style="fill:#5e00ff"/><path id="Path_2_" d="M439.7 64.2c0-31.1 26.6-43.5 26.6-43.5l-11.7.2c-24.2.5-43.8 19.1-43.8 43.3s19.6 42.8 43.8 43.3l11.7.2s-26.6-12.5-26.6-43.5" style="fill:#ffde2b"/><path id="Path_3_" d="M439.7 64.2c0-20.2 13.2-41.3 36.6-43.7l-10 .2c-24.2.5-43.8 19.3-43.8 43.5s19.6 43 43.8 43.5l10.1.2c-23.5-2.4-36.7-23.5-36.7-43.7" style="fill:#ff6700"/><path id="Shape_1_" class="st0" d="M478 20.4c-24.2 0-43.8 19.6-43.8 43.8S453.8 108 478 108c24.2 0 43.8-19.6 43.8-43.8S502.2 20.4 478 20.4zm17.3 65.2h-8.2l-11.7-28.3h-11.7v14.6c0 3.1 1.5 5.1 5.1 5.1h5.2v8.6h-6.4c-8.6 0-13.3-4.9-13.3-13V57.3h-6.5v-8.2h6.5v-5.8l9.4-3.8v9.6h18.4l9 23.6 9.1-23.8h10.2l-15.1 36.7z"/></svg>