<?xml version="1.0" encoding="utf-8"?>
<!-- Generator: Adobe Illustrator 24.1.1, SVG Export Plug-In . SVG Version: 6.00 Build 0)  -->
<svg version="1.1" id="Layer_1" xmlns="http://www.w3.org/2000/svg" xmlns:xlink="http://www.w3.org/1999/xlink" x="0px" y="0px"
	 viewBox="0 0 2499.4 776" style="enable-background:new 0 0 2499.4 776;" xml:space="preserve">
<style type="text/css">
	.st0{fill:#FFFFFF;}
</style>
<path class="st0" d="M393.6,255.2c0-71-57.1-128.2-127-128.2h-63v255.2h63C336.5,382.2,393.6,325,393.6,255.2 M680.1,764H448.9
	L265.4,509.3h-61.7v254.1H0V0h291.8C460,0,597.3,114.4,597.3,255.2c0,85.8-52.6,162.5-132.8,209.4L680.1,764"/>
<path class="st0" d="M909.8,301c-53.8,0-99.6,73.1-99.6,163.6s45.8,163.7,99.6,163.7c55,0,100.7-73.2,100.7-163.7
	S964.9,301,909.8,301 M1223.4,464.6c0,172.9-140.6,311.4-313.5,311.4S597.4,637.5,597.4,464.6c0-172.8,139.6-311.3,312.5-311.3
	C1082.7,153.3,1223.4,291.8,1223.4,464.6 M1701.4,165.9l-234.7,234.6V165.2H1263v598.3h203.7V520.7l245,242.7H1968L1656.7,452
	l257.9-257.8v355c0,117.9,70.9,226.7,249.4,226.7c84.7,0,162.5-48.1,200.3-91.6l91.6,79h43.5V165.9h-203.7v386.8
	c-22.9,40-54.9,65.2-104.3,65.2c-50.1,0-73.1-29.7-73.1-124.7V165.9H1701.4L1701.4,165.9z"/>
</svg>
