<svg xmlns="http://www.w3.org/2000/svg" viewBox="0 0 600 144.5" style="enable-background:new 0 0 600 144.5" xml:space="preserve"><radialGradient id="a" cx="300" cy="72.25" r="176.151" gradientTransform="matrix(0 -1 2.3974 0 126.79 372.25)" gradientUnits="userSpaceOnUse"><stop offset="0" style="stop-color:#fff"/><stop offset=".164" style="stop-color:#fcfcfc"/><stop offset=".294" style="stop-color:#f2f2f2"/><stop offset=".413" style="stop-color:#e1e1e1"/><stop offset=".526" style="stop-color:#c9c9c9"/><stop offset=".634" style="stop-color:#ababab"/><stop offset=".738" style="stop-color:#858585"/><stop offset=".839" style="stop-color:#585858"/><stop offset=".936" style="stop-color:#262626"/><stop offset="1" style="stop-color:#000"/></radialGradient><path d="M593.8 135.7c.7 0 1.1-.4 1.1-1.1s-.4-1.1-1.1-1.1h-1.1v2.2h1.1zm-2.4-3.2h2.6c1.3 0 2.1.8 2.1 2 0 1-.7 1.6-1.2 1.8 0 0 .1.1.2.4l1.3 2.5H595l-1.2-2.6h-1.1v2.6h-1.3v-6.7zm2.2 8.6c2.9 0 5.1-2.3 5.1-5.3s-2.2-5.3-5.1-5.3c-2.8 0-5 2.3-5 5.3s2.2 5.3 5 5.3m0-11.8c3.5 0 6.4 2.9 6.4 6.5s-2.8 6.5-6.4 6.5c-3.5 0-6.3-2.9-6.3-6.5s2.8-6.5 6.3-6.5M251.9 94.7l17.3-34.2 17.3 34.2h-34.6zM228 142.1l11-21.8h60.4l11 21.8H340L269.2 1.8l-70.4 140.3H228zM223.7 2.4H112.6V28H154v114.1h28.3V28h41.4V2.4zm172 61.4H375V28h20.7c15.2 0 23.6 6.2 23.6 17.8 0 11.6-8.8 18-23.6 18m52.2-18.7c0-12.3-4.5-22.9-12.9-30.5-8.7-8-21.1-12.2-35.8-12.2h-52.6v139.7H375V91.2h20.2l29.3 50.9h32.6l-33.2-57.8c20.9-9.8 24-28.8 24-39.2M584.8 2.4H469.4V28h66l-71.7 114.1h119.6v-25.6h-70.2L584.8 2.4zm-522.3 57c-22.9-5.4-31-9.1-31-19.7 0-8.8 8.1-14.4 20.2-14.4 18.5 0 35.1 12.8 39.5 16.6l11.9-24.1C88.4 6 71.5 0 52.1 0 23.5 0 3.5 17.1 3.5 41.6c0 26.7 17.2 35.9 47 43.1 24.9 5.7 29.3 10.7 29.3 18.9 0 9.8-8.7 15.6-22.2 15.6-16.6 0-30.3-6.4-45.9-20.9L0 123.3c16.2 13.9 36 21.2 57 21.2 30.8 0 50.8-16.6 50.8-43.2-.1-21.8-13.2-34.1-45.3-41.9" style="fill:url(#a)"/></svg>