<svg xmlns="http://www.w3.org/2000/svg" viewBox="0 0 2499.7 828.3" style="enable-background:new 0 0 2499.7 828.3" xml:space="preserve"><path d="M2371.5 128.5h-157.2V0h-271.4l-128.5 128.5h-143l-71.3 71.3v-71.3h-128.5V0H985.8v128.5H399.9L271.5 0H0v571.3l128.5 128.5 214.3 128.5h185.6v-28.7l71.3 28.7H946l61.3-71.4 7.9 71.4h226.6l4.7-71.4 81.8 71.4h200.1l14.2-71.4 71.4 71.4h228.5l71.3-71.4v71.4h128.5l100.1-71.4v71.4h143l214.3-143v-428l-128.2-128.8z"/><path d="M342.8 342.8H214.3v143h128.5V643H157.2L57.1 542.9V57.1h157.2v128.5h128.5v157.2zm643 200.1L885.7 643H399.9V185.6h157.2v299.9h57.1V185.6h157.2v299.9h57.1V185.6h157.2v357.3zM1200.1 643h-157.2V185.6h157.2V643zm0-514.5h-157.2V57.1h157.2v71.4zm342.8 214.3h-128.8v143h128.5V643H1357l-99.7-100.1V57.1h156.9v128.5h128.5v157.2h.2zm400 0h-185.6v143h185.6V643h-242.7l-100.1-100.1V285.7l100.1-100.1h242.7v157.2zm500 300.2h-157.2V343.1h-128.5V643H2000V57.1h157.2v128.5h185.6l100.1 100.1V643z" style="fill:#fff"/></svg>