<svg xmlns="http://www.w3.org/2000/svg" viewBox="0 0 2416.9 670.2" style="enable-background:new 0 0 2416.9 670.2" xml:space="preserve"><path d="M618.8.1c-40.4-.1-65.3 0-105.3 0h-1.2c-17.9.2-33.8 11.3-40.1 28.1-.7.9-1.1 2-1.5 3-40.2 114.4-75.2 212.7-115.4 327.3-10.5 30.2-21 60.3-31.8 90.5-.9 2.4-3.1 5.4-5.4 6.1-4.6 1.3-4.7-3.6-5.7-6.4-25.1-71.4-50-142.8-75.1-214.1-25.7-73.3-47-134.1-72.8-207.4-.2-.8-.6-1.6-1.2-2.4C155.8 9.4 140-.2 122.8.3 82.2 0 58.4-.1 17.2.1 3.6.2-3.1 10.2 1.4 22.9c62 172.8 123.8 345.6 185.7 518.2 4.7 13 8.7 24.5 12.8 35.7 23.6 54.6 59.5 83.2 122.8 86.9h14.4c20.7-.7 43.9-3.9 70.4-9.2l43.9-125.2c61.2-169.1 120.9-333.9 182.9-505.5.7-2 1.5-3.9 1.8-5.9C637.6 7.7 630.3.1 618.8.1m593.7 45.3v-1.2c0-22.8-17.5-41.7-40.2-43.4-1.2-.4-110.5 0-110.5 0v61.4c0 114.7.1 216.1-.2 332.5 0 11.5-.8 23.4-3.7 34.5-10.4 42.8-36.4 72.5-78.8 85.3-42.6 13-82.3 5.6-115.9-25-25.2-23-37.4-52.6-37.4-86.5-.2-79.3-.3-248.1-.3-339.7V.7S715.6.3 714.4.7c-22.7 1.7-40.2 20.7-40.2 43.4 0 .4.1.8.1 1.2v20.5c0 119.1-.2 220.8.2 342.3.1 19 2.2 38.2 6.5 56.6 31.7 136.6 166.5 227 310.9 201 67.6-12.3 123.1-45.9 165.6-100.1 35.1-44.7 54.1-95.8 54.5-152.8.5-63.7.1-127.2.1-190.7V45.4h.4zm1199.1 0c.1-.5.1-.9.1-1.2 0-22.7-17.4-41.7-40.1-43.4-1.3-.4-110.7 0-110.7 0s.1 23.6.1 61.4c0 114.7.1 216.1-.1 332.5 0 11.5-1 23.4-3.7 34.5-10.4 42.8-36.5 72.5-78.7 85.3-42.7 13-82.5 5.6-115.9-25-25.2-23-37.4-52.6-37.5-86.5-.2-79.3-.2-248.1-.2-339.7V.7S1915 .3 1913.8.7c-22.7 1.8-40.2 20.7-40.1 43.4v21.8c0 119.1-.2 220.8.4 342.3 0 19 2.1 38.2 6.4 56.6 31.7 136.6 166.6 227 310.9 201 67.6-12.3 123.1-45.9 165.6-100.1 35.1-44.7 54.1-95.8 54.6-152.8.3-63.7 0-127.2 0-190.7V45.4zm-773.4 415.2c-30.3 36.1-69.4 56.4-116.3 61.7-9 1-18.1 1.2-27.2 1.3-25.9.3-52 .2-77.9.2-9.5 0-9.6 0-9.6-9.3V148.3c0-8.6.1-8.7 8.6-8.7 31.7.3 63.4-.6 95.2 1.1 59.1 3 105.8 29.8 139.5 78.3 20.6 29.8 30.9 63.4 32.9 99.6 2.9 53.2-10.7 101.1-45.2 142m44.4-408.8c-48.5-30.7-101.7-47-159-49-26.4-.8-52.8-.8-79.1-.8-54-.1-85.1 0-138.9 0h-1c-24.1 0-43.6 19.5-43.5 43.6V619c0 24 19.5 43.6 43.5 43.6 78.1-.2 131.7 0 209.8-.3 15.9-.1 31.8-1.5 47.6-4.1 63.8-10.6 120.5-36.8 167.8-80.8 89.1-83 124.9-185.7 103.9-305.5-16.7-95.4-69.5-168.4-151.1-220.1m702.9 561.3h-10.8v14.4h10.8c3.4 0 7.1-3 7.1-7 0-4.2-3.6-7.4-7.1-7.4m6.5 34.7-10.2-15.4h-7.1v15.4h-5.2v-39.2h16c6.6 0 12.4 4.7 12.4 12 0 8.7-7.8 11.7-9.9 11.7l10.4 15.6-6.4-.1zm-9.3-49.1c-16.3 0-29.5 12.9-29.5 29.4 0 16.3 13.2 29.5 29.5 29.5s29.5-13.2 29.5-29.5c-.1-16.6-13.3-29.4-29.5-29.4m0 63.6c-18.9 0-34.2-15.3-34.2-34.2 0-18.8 15.2-34.1 34-34.1h.2c18.8-.1 34.1 15 34.2 33.8v.3c0 18.9-15.2 34.2-34.2 34.2" style="fill:#fff"/></svg>