<?xml version="1.0" encoding="utf-8"?>
<!-- Generator: Adobe Illustrator 26.2.1, SVG Export Plug-In . SVG Version: 6.00 Build 0)  -->
<svg version="1.1" id="Layer_1" xmlns="http://www.w3.org/2000/svg" xmlns:xlink="http://www.w3.org/1999/xlink" x="0px" y="0px"
	 viewBox="0 0 78.3 40" style="enable-background:new 0 0 78.3 40;" xml:space="preserve">
<style type="text/css">
	.st0{clip-path:url(#SVGID_00000011720511654010606050000006380008862273502352_);}
	.st1{fill:url(#SVGID_00000173855641866328315420000009175402301537684927_);}
	.st2{fill:#FFFFFF;}
</style>
<g>
	<defs>
		<rect id="SVGID_1_" width="78.3" height="40"/>
	</defs>
	<clipPath id="SVGID_00000038380863488308237830000007430427298085077932_">
		<use xlink:href="#SVGID_1_"  style="overflow:visible;"/>
	</clipPath>
	<g style="clip-path:url(#SVGID_00000038380863488308237830000007430427298085077932_);">
		
			<linearGradient id="SVGID_00000007422059117423865440000013222634340173830329_" gradientUnits="userSpaceOnUse" x1="71.7525" y1="22" x2="1.818989e-12" y2="22" gradientTransform="matrix(1 0 0 -1 0 42)">
			<stop  offset="0" style="stop-color:#A2FFE8"/>
			<stop  offset="1" style="stop-color:#00EEE6"/>
		</linearGradient>
		<path style="fill:url(#SVGID_00000007422059117423865440000013222634340173830329_);" d="M42.2,28.5V16.2l-5.7,12.4h-2.2
			l-5.7-12.4v12.4h-2.4V11.4H29l6.4,13.8l6.4-13.8h2.8v17.1H42.2z M17.2,18.4h2.6h1.5c0-0.4,0-0.8,0-1.1c-0.2-2.6-1.8-3.8-5.2-3.8
			c-3.6,0-4.4,2.3-4.6,2.8l-0.2,0.5H8.8l0.2-0.9c0.1-0.5,1.3-4.8,6.9-4.8c6,0,7.4,3.3,7.6,6c0,0.6,0.1,2.3,0.1,2.7v8.8h-2.4l0-1.7
			c-0.7,0.5-1.4,0.9-2.2,1.2C17.6,28.7,16,29,14.4,29c-1.4,0.1-2.8-0.3-4-1c-0.6-0.4-1.1-0.9-1.4-1.6c-0.3-0.6-0.5-1.4-0.5-2.1
			c0-0.7,0.1-1.4,0.4-2.1s0.7-1.2,1.2-1.7C12.2,18.6,15.7,18.4,17.2,18.4L17.2,18.4z M17.5,20.8h-0.4c-1.1,0-4,0.1-5.4,1.5
			c-0.3,0.3-0.5,0.6-0.6,0.9c-0.1,0.4-0.2,0.7-0.2,1.1c0,0.3,0,0.7,0.2,1c0.1,0.3,0.4,0.6,0.6,0.7c1.6,1,5.1,0.5,6.4-0.1
			c1.2-0.5,2.2-1.3,3.1-2.2c0-1.1,0-2.1,0-3L17.5,20.8L17.5,20.8z M69.5,37.8H2.3V2.2h67.2V8h2.3V0H0v40h71.8v-8h-2.3V37.8z
			 M54.8,13.4c0.9,0,1.8,0.2,2.7,0.7c0.8,0.4,1.5,1.1,2,1.9l0.1,0.1h2.7l-0.2-0.4c-0.7-1.4-1.7-2.5-3-3.3c-1.3-0.8-2.8-1.3-4.3-1.3
			c-4.6,0-8.3,4-8.3,8.9c0,4.9,3.7,8.9,8.3,8.9c1.5,0,3-0.5,4.3-1.3c1.3-0.8,2.3-2,3-3.3l0.2-0.4h-2.7L59.5,24
			c-0.5,0.8-1.2,1.4-2,1.9c-0.8,0.4-1.7,0.7-2.7,0.7c-3.3,0-6-3-6-6.6C48.8,16.4,51.5,13.4,54.8,13.4"/>
		<path class="st2" d="M71.7,18.9v-6.5h-2.2v6.5h-6.6v2.2h6.6v6.5h2.2v-6.5h6.6v-2.2H71.7z"/>
	</g>
</g>
</svg>
