<?xml version="1.0" encoding="utf-8"?>
<!-- Generator: Adobe Illustrator 26.2.1, SVG Export Plug-In . SVG Version: 6.00 Build 0)  -->
<svg version="1.1"
	 id="Layer_1" xmlns:cc="http://creativecommons.org/ns#" xmlns:dc="http://purl.org/dc/elements/1.1/" xmlns:inkscape="http://www.inkscape.org/namespaces/inkscape" xmlns:rdf="http://www.w3.org/1999/02/22-rdf-syntax-ns#" xmlns:sodipodi="http://sodipodi.sourceforge.net/DTD/sodipodi-0.dtd" xmlns:svg="http://www.w3.org/2000/svg"
	 xmlns="http://www.w3.org/2000/svg" xmlns:xlink="http://www.w3.org/1999/xlink" x="0px" y="0px" viewBox="0 0 1000 178.5"
	 style="enable-background:new 0 0 1000 178.5;" xml:space="preserve">
<style type="text/css">
	.st0{fill-rule:evenodd;clip-rule:evenodd;fill:#FFFFFF;}
</style>
<sodipodi:namedview  bordercolor="#666666" borderopacity="1" gridtolerance="10" guidetolerance="10" id="namedview69" inkscape:current-layer="Layer_1" inkscape:cx="343.07281" inkscape:cy="-58.433831" inkscape:pageopacity="0" inkscape:pageshadow="2" inkscape:window-height="705" inkscape:window-maximized="1" inkscape:window-width="1366" inkscape:window-x="-8" inkscape:window-y="-8" inkscape:zoom="1" objecttolerance="10" pagecolor="#ffffff" showgrid="false">
	</sodipodi:namedview>
<polygon id="polygon52" class="st0" points="763,0 807.8,0 807.8,139.1 875.2,139.1 875.2,178.2 763,178.2 "/>
<path id="path54" inkscape:connector-curvature="0" class="st0" d="M592.5,0h45v178.2h-45V0z M697,178.2h56.5l-61.6-92.4L752.8,0
	h-56.5L667,48.3l-24.1,39.8l-0.6,1l22.3,35.1l0,0L697,178.2z"/>
<polygon id="polygon56" class="st0" points="930.3,39.1 930.3,67.8 989.7,67.8 989.7,106.9 930.3,106.9 930.3,139.1 1000,139.1 
	1000,178.2 885.4,178.2 885.4,0 998.1,0 998.1,39.1 "/>
<path id="path58" inkscape:connector-curvature="0" class="st0" d="M135.7,0h77.1c40.6,0,61.9,26.6,61.9,58.1c0,23.9-9,42-32.8,52.1
	l39.2,68h-44.8L182.5,87v-2.3h26.4c14.1,0,25.7-11,25.7-24.5s-9-24.5-24.5-24.5h-29.6v142.5h-44.8L135.7,0L135.7,0z"/>
<path id="path60" inkscape:connector-curvature="0" class="st0" d="M354.6,102.5h38l-19-61L354.6,102.5z M404.5,140.8h-61.8
	l-11.6,37.4h-47.7L343.6,0h60l60.2,178.2h-47.7L404.5,140.8z"/>
<path id="path62" inkscape:connector-curvature="0" class="st0" d="M579.6,2.1v35.7c-12.5-0.9-27.2-1.8-39.5,0
	c-36.1,5.4-46.2,35-46.2,51.3c0,16.8,11.7,47.3,50.2,51c11.2,1.1,24.6,0.1,35.5-0.4v36.4c-18.9,3.3-41.3,3.6-62-2.1
	c-39.2-10.5-61.7-43.3-61.7-84.9S482.6,14,518.7,4.2C539.4-1.5,561-0.1,579.6,2.1L579.6,2.1z"/>
<path id="path64" inkscape:connector-curvature="0" class="st0" d="M123.7,2.1v35.7c-12.5-0.9-27.2-1.8-39.5,0
	C48.1,43.2,38,72.8,38,89.1c0,16.8,11.7,47.3,50.2,51c11.1,1.1,24.5,0.1,35.5-0.4v36.4c-18.9,3.3-41.3,3.6-62-2.1
	C22.6,163.5,0,130.7,0,89.1S26.8,14,62.8,4.2C83.5-1.5,105.1-0.1,123.7,2.1z"/>
</svg>
