<?xml version="1.0" encoding="utf-8"?>
<!-- Generator: Adobe Illustrator 26.2.1, SVG Export Plug-In . SVG Version: 6.00 Build 0)  -->
<svg version="1.1" id="Layer_1" xmlns="http://www.w3.org/2000/svg" xmlns:xlink="http://www.w3.org/1999/xlink" x="0px" y="0px"
	 viewBox="0 0 409.2 137.9" style="enable-background:new 0 0 409.2 137.9;" xml:space="preserve">
<style type="text/css">
	.st0{fill:#FFFFFF;}
	.st1{fill:#0071BA;}
</style>
<g>
	<path class="st0" d="M245.4,1c8.9-2.1,18.9-0.8,26.1,5c5.6,4.3,8.8,11.1,10,17.9c-5.5-0.8-11-1.7-16.5-2.3
		c-1.7-3.5-4.6-6.8-8.6-7.6c-5.5-1.4-11.2,1-14.2,5.8c-5.4-0.3-10.8-0.5-16.1-0.5C228.7,10.2,236.1,3.2,245.4,1z"/>
	<path class="st0" d="M0,58.2C0,39.1,0,19.9,0,0.8h29.6c7.8,0.1,15.9,3.1,20.6,9.6c6.8,8.4,5.2,20,5.6,30.1
		c-5.1,1.5-10.2,2.7-15.3,4.2c0-6.7,0.2-13.5-0.7-20.1C39.1,19,34,14.7,28.6,14.3c-4.4-0.2-8.9,0-13.3-0.1v38.4
		C10.1,54.4,5.1,56.3,0,58.2z"/>
	<path class="st0" d="M69.3,0.8h15v33.3c-5,1.1-10,2.1-15,3.2V0.8z"/>
	<path class="st0" d="M99.3,0.8h31.2c8.2,0,16.6,4.2,20.6,11.6c2,3.3,2.6,7.1,3.1,10.9c-5.1,0.7-10.1,1.2-15.2,1.8
		c0.1-4.9-3-9.9-8.1-10.6c-5.5-0.6-11.1-0.1-16.6-0.2c0,4.8,0,9.6,0,14.4c-5,0.8-10,1.7-15,2.5L99.3,0.8z"/>
	<path class="st0" d="M166.5,0.8H217c0,4.5,0,9,0,13.5h-35.5c0,2.2,0,4.4-0.1,6.6c-5,0.3-10,0.8-14.9,1.2L166.5,0.8z"/>
	<path class="st0" d="M175.3,92.8c3.3-2.5,6.6-5.1,10-7.6v7h9.2v9.3h-9.2c0.1,7.8-0.2,15.7,0.2,23.5c1.4,3.6,6,2.8,9.1,2.8v9
		c-4.9,0.4-10.2,0.6-14.6-2.1c-3.7-2.6-4.5-7.4-4.6-11.7C175.2,113,175.3,102.9,175.3,92.8L175.3,92.8z"/>
	<path class="st0" d="M141.7,94.2c7.8-6.1,20.2-4.7,26.6,2.8c-2.4,1.9-4.9,3.8-7.3,5.7c-3.3-3.7-10.3-4.9-13.5-0.6
		c-1.3,2.6,0.9,5,3.3,5.7c4.7,2.2,10.1,2.8,14.7,5.2c7.6,4.5,7.2,17.2-0.5,21.3c-9.6,5.7-25,3.4-29.7-7.7c2.8-1.6,5.6-3.3,8.5-4.8
		c2.1,6,9.6,7.9,15,5.3c2.1-1.1,3.1-4,1.5-5.9c-5.1-4-12.1-4.1-17.7-7.1C135.5,110.2,135.4,98.9,141.7,94.2L141.7,94.2z"/>
	<path class="st0" d="M211.5,98.8c2.5-5.2,8.2-7.5,13.8-7.7v10.8c-3.7-0.1-7.7,0.6-10.5,3.3c-2.8,2.4-3.3,6.3-3.3,9.7v21.8h-9.7
		V92.2h9.8C211.5,94.4,211.5,96.6,211.5,98.8z"/>
	<path class="st0" d="M243.1,91.7c7-1.7,15.1-0.8,20.7,4c6.6,5.4,9.3,14.4,8.1,22.7c-11.8,0-23.6,0-35.4,0
		c2.2,11.4,19.2,13.9,25.6,4.8c2.7,1.6,5.4,3.2,8.1,4.8c-8.8,13.5-31.7,13-40.2-0.4c-3.6-5.4-4.3-12.3-3.1-18.6
		C228.4,100.5,234.8,93.9,243.1,91.7 M239.6,104.1c-1.7,1.8-2.5,4.1-3.2,6.4c8.6,0,17.3,0.1,25.9,0c-0.8-2.2-1.4-4.5-3-6.3
		C254.5,98.4,244.5,98.6,239.6,104.1L239.6,104.1z"/>
	<path class="st0" d="M276.5,106c2.9-8.4,11-15,20-15c6.2-0.5,12.3,2.1,16.3,6.9c0-1.9-0.1-3.8-0.1-5.7h9.8c0,14.8,0,29.7,0,44.5
		h-9.8v-6c-7.5,9.7-23.4,9-31.2,0.1C275.2,124.4,273.7,114.4,276.5,106 M296,100.6c-7.3,1.2-12.3,9.1-10.8,16.2
		c0.9,7.1,8.1,12.5,15.2,11.5c7.9-0.5,13.7-8.7,12.1-16.4C311.7,104.3,303.5,98.8,296,100.6L296,100.6z"/>
	<path class="st0" d="M337.9,97c5.9-8.2,20-8.2,25.2,0.6c4.7-7.2,15-8.4,22.2-4.6c5.2,2.9,8.1,9,8.1,14.8v28.9h-9.8
		c0-8.6,0-17.2,0-25.8c0-2.8-0.2-5.9-2.2-8c-3.1-3.6-9.2-3.6-12.6-0.4c-2.5,2.4-3.3,6.1-3.2,9.4c0,8.3,0,16.5,0,24.8H356V111
		c-0.1-3-0.4-6.5-2.7-8.7c-3.7-3.4-10.2-2.4-13.1,1.6c-1.8,2.3-2.2,5.3-2.2,8.2c0,8.3,0,16.5,0,24.7h-9.8V92.2c3.3,0,6.5,0,9.8,0
		C338,93.8,338,95.4,337.9,97L337.9,97z"/>
</g>
<g>
	<path class="st1" d="M285.3,0.8c18.3,0,36.7,0,55,0v13.5h-20c0,21,0,42,0,63h-15c0-21,0-42,0-63h-20C285.3,9.7,285.3,5.2,285.3,0.8
		z"/>
	<path class="st1" d="M347.3,0.8H363c5.2,16.4,10.2,32.8,15.2,49.2c5.2-16.4,10.1-32.8,15.2-49.2h15.8c-8.4,25.5-16.8,51-25.3,76.5
		h-11.3C364.1,51.8,355.6,26.3,347.3,0.8L347.3,0.8z"/>
	<path class="st1" d="M225.1,24.7c5.2,0.1,10.3,0.3,15.5,0.5c-0.6,6.9-0.2,13.8-0.3,20.7c0.1,4.7,0.1,10.1,3.3,13.9
		c4.5,5.5,13.8,5.9,18.7,0.7c1.9-2,2.8-4.6,3.7-7.2h15.6c-0.8,6.5-3.9,12.5-8.6,17c-12,11.5-34.2,9.3-43.5-4.5
		c-3.6-5.3-4.3-12-4.6-18.2C224.6,40.1,224.7,32.4,225.1,24.7L225.1,24.7z"/>
	<path class="st1" d="M166.5,28.1c5-0.6,10-1.1,15-1.6v5.2c10.1,0,20.2,0,30.2,0v13.7h-30.2v18H217c0.1,4.6,0,9.2,0,13.7
		c-16.8,0-33.7,0-50.5,0C166.5,60.8,166.5,44.5,166.5,28.1z"/>
	<path class="st1" d="M99.2,40.6c17.9-4.5,36-8.1,54.2-10.7c-1.8,6.6-6.7,12-13.1,14.4c5.6,11,11.3,21.9,16.9,32.9
		c-5.9,0.1-11.8,0-17.6,0.1c-4.9-10.2-10-20.3-14.9-30.5h-10.5c0,10.2,0,20.3,0,30.5h-15C99.3,65,99.3,52.8,99.2,40.6L99.2,40.6z"/>
	<path class="st1" d="M69.3,49.8c4.5-2.5,10-3.3,14.9-5.1c0,10.8,0,21.7,0,32.5h-15C69.3,68.1,69.1,59,69.3,49.8z"/>
	<path class="st1" d="M6,77.2c15.8-9,32.3-16.7,49.3-22.9c-1,6.3-3.6,12.7-8.7,16.8c-5.3,4.5-12.4,6.1-19.2,6.1
		C20.3,77.2,13.1,77.3,6,77.2z"/>
</g>
</svg>
