<?xml version="1.0" encoding="utf-8"?>
<!-- Generator: Adobe Illustrator 24.1.1, SVG Export Plug-In . SVG Version: 6.00 Build 0)  -->
<svg version="1.1" id="Layer_1" xmlns="http://www.w3.org/2000/svg" xmlns:xlink="http://www.w3.org/1999/xlink" x="0px" y="0px"
	 viewBox="0 0 1925.9 585.8" style="enable-background:new 0 0 1925.9 585.8;" xml:space="preserve">
<style type="text/css">
	.st0{fill:#FFFFFF;}
</style>
<path d="M144.2,0.1V10c0,0,0,17.5,0,32.7C129,25.9,105.8,0.1,105.8,0.1H0l0.1,525.4L61,573.6l63.5-8L125,519
	c20.9,17.2,49.4,40.6,49.4,40.6l104.1-10.6V54.2L222,0.2L144.2,0.1L144.2,0.1z M785.1,0H604.2v70c0,0,47.8,37.6,54.4,42.7v360.7
	l59.9,48l72.4-1.8V112.7c13.1-0.1,53.5-0.4,53.5-0.4V61.4L789.5,0H785.1z M1516.1,0.1h-71.2V483l60.8,56.4l71.9,6V55.5l-57.4-55.4
	H1516.1z M1870,295.3l43.1-236l-57.9-59.2h-75.4c0,0-3.9,24.3-6.4,39.6c-14.9-16.2-36.5-39.6-36.5-39.6h-77.7c0,0,44.3,232,45,235.3
	c-0.6,3.4-42.5,264.1-42.5,264.1l82.3,62.6l49.2,5.9v-44l67.7,52.7l65,8.9C1925.9,585.8,1870.7,298.9,1870,295.3L1870,295.3z
	 M1320.7,399.9V53.7l-56.6-53.7h-76.1v471.1l60.3,52.8l137.7,6.8l-3-61C1383,469.9,1334.6,415.4,1320.7,399.9L1320.7,399.9z
	 M494.9,104.6H554V54L497.6,0h-4L362.1,0.1v490.1l59.5,46.9l132.5-8.3v-54.2c0,0-54.4-60.2-59.1-65.4v-87.6h59.9v-54.6
	c0,0-54.7-54.7-59.9-60L494.9,104.6L494.9,104.6z M1047,104.5h59.1V54l-56.4-54h-4L914.1,0.1v467.8l60.3,50.1l72.5,0.5V321.5l59.9,0
	v-54.6c0,0-54.7-54.7-59.9-60V104.5z"/>
<path class="st0" d="M1460.6,474c0,0,18.4,0.9,49.9,3.2V14.1l-49.9,0.1V474L1460.6,474z M620,60.3h54.4v402.9c0,0,11.7-0.9,49.8-1.8
	l0.3-401h55V14.2L620,14.2V60.3L620,60.3z M161.6,412.2l-3.5,0.4L97.3,14.2l-80.9-0.1l0,500.1c0,0,16.1-2.3,50.3-6.2l-3.5-380.1
	l3.5-0.3L124.4,502c0,0,19.8-2.3,87-9V14.2h-51.6L161.6,412.2L161.6,412.2z M1848.6,14.1h-56.3l-28.3,178.7h-3.3l-29.4-178.7h-55.2
	l43.1,221l-41.7,258.3l53.7,5.1l27.6-213l3.4,0.1l26.8,218.9l58.9,6.5l-42.1-269.7L1848.6,14.1z M1254,14l-50.1,0.1v447.5
	c0,0,34,1,115.9,4.6v-45.4c0,0-9.2-0.9-65.8-2.9L1254,14L1254,14z M377.9,479.5c0,0,29.6-2.1,115.2-7.6v-45.7l-64.7,4.4V270.5
	l64.7-0.1v-46.6l-64.9,0V60.4h65.2V14.1l-115.4,0L377.9,479.5L377.9,479.5z M929.9,457.9h50.5V270.5l64.7-0.1v-46.6l-65,0.1V60.4
	h65.2V14.1l-115.4,0V457.9z"/>
</svg>
