<?xml version="1.0" encoding="utf-8"?>
<!-- Generator: Adobe Illustrator 24.1.1, SVG Export Plug-In . SVG Version: 6.00 Build 0)  -->
<svg version="1.1" id="layer" xmlns="http://www.w3.org/2000/svg" xmlns:xlink="http://www.w3.org/1999/xlink" x="0px" y="0px"
	 viewBox="0 0 521.8 128.3" style="enable-background:new 0 0 521.8 128.3;" xml:space="preserve">
<style type="text/css">
	.st0{fill:#FFFFFF;}
	.st1{fill:#FF2CD2;}
	.st2{fill:#5E00FF;}
	.st3{fill:#FFDE2B;}
	.st4{fill:#FF6700;}
</style>
<path id="Shape" class="st0" d="M333,20.4c-24.2,0-43.8,19.6-43.8,43.8S308.8,108,333,108s43.8-19.6,43.8-43.8S357.1,20.4,333,20.4
	L333,20.4z M333,84.3c-11.1,0-20.1-9-20.1-20.1s9-20.1,20.1-20.1s20.1,9,20.1,20.1c0,5.3-2.1,10.4-5.9,14.2S338.3,84.3,333,84.3
	L333,84.3z M262.8,44.6v27.1c0,8.3,3.7,12,12,12h8.4v22.6H271c-10.1,0-18.5-3-24.1-8.6s-8.6-13.9-8.6-24V44.6h-15.1V22.1h15.1V9.9
	L262.8,0v22.1h20.4v22.5H262.8z M213.6,22.1v46.1c0,14.2-7.5,27.4-19.8,34.6c-12.3,7.1-27.5,7.1-39.9,0
	c-12.3-7.1-19.9-20.3-19.8-34.6V32.9l24.4-9.8V69c0,8.5,6.9,15.4,15.4,15.4s15.4-6.9,15.4-15.4V32.1L213.6,22.1z M123.5,0v106.3H99
	V9.9L123.5,0z M48.6,20.4c-10.2,0-18.9,3.5-25.4,10.1l-3.4-8.2L0,30.3v98h24.5v-29c6.4,5.8,14.6,8.5,24.1,8.5
	c11.1,0.1,21.7-4.6,29.1-12.8c7.5-8.1,11.6-19.1,11.6-30.8C89.3,39.7,71.4,20.4,48.6,20.4z M44.9,84.3c-11.3,0-20.4-9-20.4-20.1
	s9.1-20.1,20.4-20.1s20.4,9,20.4,20.1S56.2,84.3,44.9,84.3z"/>
<path id="Path" class="st1" d="M439.7,64.2c0-34.4,3.2-43,3.2-43l-10.2,0.2c-24.2,0.5-43.8,18.7-43.8,42.8s19.6,42.3,43.8,42.8
	l10.2,0.2C443,107.2,439.7,98.6,439.7,64.2"/>
<path id="Path_1_" class="st2" d="M439.7,64.2c0-27.5,14.9-43.3,14.9-43.3l-11.7,0.2c-24.2,0.5-43.7,18.9-43.7,43s19.6,42.5,43.8,43
	l11.7,0.2C454.6,107.5,439.7,91.7,439.7,64.2"/>
<path id="Path_2_" class="st3" d="M439.7,64.2c0-31.1,26.6-43.5,26.6-43.5l-11.7,0.2c-24.2,0.5-43.8,19.1-43.8,43.3
	s19.6,42.8,43.8,43.3l11.7,0.2C466.3,107.7,439.7,95.2,439.7,64.2"/>
<path id="Path_3_" class="st4" d="M439.7,64.2c0-20.2,13.2-41.3,36.6-43.7l-10,0.2c-24.2,0.5-43.8,19.3-43.8,43.5s19.6,43,43.8,43.5
	l10.1,0.2C452.9,105.5,439.7,84.4,439.7,64.2"/>
<path id="Shape_1_" class="st0" d="M478,20.4c-24.2,0-43.8,19.6-43.8,43.8S453.8,108,478,108c24.2,0,43.8-19.6,43.8-43.8
	S502.2,20.4,478,20.4L478,20.4z M495.3,85.6h-8.2l-11.7-28.3h-11.7v14.6c0,3.1,1.5,5.1,5.1,5.1h5.2v8.6h-6.4
	c-8.6,0-13.3-4.9-13.3-13V57.3h-6.5v-8.2h6.5v-5.8l9.4-3.8v9.6h18.4l9,23.6l9.1-23.8h10.2L495.3,85.6z"/>
</svg>
