<?xml version="1.0" encoding="utf-8"?>
<!-- Generator: Adobe Illustrator 26.2.1, SVG Export Plug-In . SVG Version: 6.00 Build 0)  -->
<svg version="1.1" id="Layer_1" xmlns="http://www.w3.org/2000/svg" xmlns:xlink="http://www.w3.org/1999/xlink" x="0px" y="0px"
	 viewBox="0 0 2426.5 869.4" style="enable-background:new 0 0 2426.5 869.4;" xml:space="preserve">
<style type="text/css">
	.st0{fill-rule:evenodd;clip-rule:evenodd;fill:#FFFFFF;}
</style>
<path class="st0" d="M616.3,440.6c0-175.7,62.5-285.8,139.9-297.7C678.8,50.6,550.8,0,434.7,0c-128,0-244.1,53.6-324.5,142.9
	c77.4,14.9,101.2,80.4,101.2,178.6h-92.3c0-59.5-11.9-89.3-47.6-89.3c-14.9,0-26.8,8.9-32.7,20.8c0,3-3,6-3,6c-3,8.9-6,17.9-6,26.8
	c0,119.1,199.5,113.1,199.5,300.7c0,71.4-56.6,139.9-119.1,139.9c83.4,89.3,193.5,142.9,324.5,142.9c125,0,238.2-53.6,318.6-139.9
	C678.8,711.6,616.3,607.3,616.3,440.6L616.3,440.6z M574.6,726.5H473.4V479.3H366.2v247.1H268V154.8h98.2v232.2h107.2V154.8h101.2
	V726.5z"/>
<path class="st0" d="M86.3,637.1c26.8,0,47.6-26.8,47.6-62.5c0-71.5-65.5-86.4-134-148.9v23.8C2.5,561.6,41.8,637.1,86.3,637.1
	L86.3,637.1z M714.5,431.7c0-98.2,26.8-193.5,77.4-193.5c62.5,0,77.4,148.9,77.4,196.5c0,101.2-32.7,196.5-77.4,196.5
	C741.3,631.2,714.5,532.9,714.5,431.7L714.5,431.7z M1709,163.8h-419.8l-41.7,327.5l-44.7-327.5h-92.3l-47.6,327.5h-3l-35.7-327.5
	h-92.3l74.4,556.8h89.3l50.6-354.3h3l47.6,354.3h92.3l59.5-470.4h86.4v470.4h101.2V250.1h92.3v470.4h104.2V163.8H1709z
	 M1780.4,163.8h137l44.7,285.8l47.6-285.8h134v556.8h-92.3V312.6l-68.5,407.9h-56.6l-68.5-407.9h-3v407.9h-74.5L1780.4,163.8
	L1780.4,163.8z M2191.3,163.8h229.3v86.3h-128V390h95.3v92.3h-95.3v151.8h134v86.4h-235.2V163.8z"/>
</svg>
