<?xml version="1.0" encoding="utf-8"?>
<!-- Generator: Adobe Illustrator 26.2.1, SVG Export Plug-In . SVG Version: 6.00 Build 0)  -->
<svg version="1.1" id="layer" xmlns="http://www.w3.org/2000/svg" xmlns:xlink="http://www.w3.org/1999/xlink" x="0px" y="0px"
	 viewBox="0 0 600 144.5" style="enable-background:new 0 0 600 144.5;" xml:space="preserve">
<style type="text/css">
	.st0{fill:url(#SVGID_1_);}
</style>
<radialGradient id="SVGID_1_" cx="300" cy="72.25" r="176.1514" gradientTransform="matrix(6.123234e-17 -1 2.3974 1.467966e-16 126.79 372.25)" gradientUnits="userSpaceOnUse">
	<stop  offset="0" style="stop-color:#FFFFFF"/>
	<stop  offset="0.1637" style="stop-color:#FCFCFC"/>
	<stop  offset="0.2943" style="stop-color:#F2F2F2"/>
	<stop  offset="0.4135" style="stop-color:#E1E1E1"/>
	<stop  offset="0.5259" style="stop-color:#C9C9C9"/>
	<stop  offset="0.6337" style="stop-color:#ABABAB"/>
	<stop  offset="0.7379" style="stop-color:#858585"/>
	<stop  offset="0.8392" style="stop-color:#585858"/>
	<stop  offset="0.9358" style="stop-color:#262626"/>
	<stop  offset="1" style="stop-color:#000000"/>
</radialGradient>
<path class="st0" d="M593.8,135.7c0.7,0,1.1-0.4,1.1-1.1s-0.4-1.1-1.1-1.1h-1.1v2.2H593.8z M591.4,132.5h2.6c1.3,0,2.1,0.8,2.1,2
	c0,1-0.7,1.6-1.2,1.8l0,0c0,0,0.1,0.1,0.2,0.4l1.3,2.5H595l-1.2-2.6h-1.1v2.6h-1.3V132.5z M593.6,141.1c2.9,0,5.1-2.3,5.1-5.3
	s-2.2-5.3-5.1-5.3c-2.8,0-5,2.3-5,5.3C588.6,138.8,590.8,141.1,593.6,141.1 M593.6,129.3c3.5,0,6.4,2.9,6.4,6.5s-2.8,6.5-6.4,6.5
	c-3.5,0-6.3-2.9-6.3-6.5C587.3,132.2,590.1,129.3,593.6,129.3 M251.9,94.7l17.3-34.2l17.3,34.2H251.9z M228,142.1l11-21.8h60.4
	l11,21.8H340L269.2,1.8l-70.4,140.3H228z M223.7,2.4H112.6V28H154v114.1h28.3V28h41.4V2.4z M395.7,63.8H375V28h20.7
	c15.2,0,23.6,6.2,23.6,17.8C419.3,57.4,410.5,63.8,395.7,63.8 M447.9,45.1c0-12.3-4.5-22.9-12.9-30.5c-8.7-8-21.1-12.2-35.8-12.2
	h-52.6v139.7H375V91.2h20.2l29.3,50.9h32.6l-33.2-57.8C444.8,74.5,447.9,55.5,447.9,45.1 M584.8,2.4H469.4V28h66l-71.7,114.1h119.6
	v-25.6h-70.2L584.8,2.4z M62.5,59.4c-22.9-5.4-31-9.1-31-19.7c0-8.8,8.1-14.4,20.2-14.4c18.5,0,35.1,12.8,39.5,16.6l11.9-24.1
	C88.4,6,71.5,0,52.1,0C23.5,0,3.5,17.1,3.5,41.6c0,26.7,17.2,35.9,47,43.1c24.9,5.7,29.3,10.7,29.3,18.9c0,9.8-8.7,15.6-22.2,15.6
	c-16.6,0-30.3-6.4-45.9-20.9L0,123.3c16.2,13.9,36,21.2,57,21.2c30.8,0,50.8-16.6,50.8-43.2C107.7,79.5,94.6,67.2,62.5,59.4"/>
</svg>
