<?xml version="1.0" encoding="utf-8"?>
<!-- Generator: Adobe Illustrator 26.2.1, SVG Export Plug-In . SVG Version: 6.00 Build 0)  -->
<svg version="1.1" id="Layer_1" xmlns="http://www.w3.org/2000/svg" xmlns:xlink="http://www.w3.org/1999/xlink" x="0px" y="0px"
	 viewBox="0 0 2499.7 828.3" style="enable-background:new 0 0 2499.7 828.3;" xml:space="preserve">
<style type="text/css">
	.st0{fill:#FFFFFF;}
</style>
<polygon points="2371.5,128.5 2214.3,128.5 2214.3,0 1942.9,0 1814.4,128.5 1671.4,128.5 1600.1,199.8 1600.1,128.5 1471.6,128.5 
	1471.6,0 985.8,0 985.8,128.5 399.9,128.5 271.5,0 0,0 0,571.3 128.5,699.8 342.8,828.3 528.4,828.3 528.4,799.6 599.7,828.3 
	946,828.3 1007.3,756.9 1015.2,828.3 1241.8,828.3 1246.5,756.9 1328.3,828.3 1528.4,828.3 1542.6,756.9 1614,828.3 1842.5,828.3 
	1913.8,756.9 1913.8,828.3 2042.3,828.3 2142.4,756.9 2142.4,828.3 2285.4,828.3 2499.7,685.3 2499.7,257.3 2371.5,128.5 "/>
<path class="st0" d="M342.8,342.8H214.3v143h128.5V643H157.2L57.1,542.9V57.1h157.2v128.5h128.5L342.8,342.8L342.8,342.8z
	 M985.8,542.9L885.7,643H399.9V185.6h157.2v299.9h57.1V185.6h157.2v299.9h57.1V185.6h157.2V542.9z M1200.1,643h-157.2V185.6h157.2
	V643z M1200.1,128.5h-157.2V57.1h157.2V128.5L1200.1,128.5z M1542.9,342.8h-128.8v143h128.5V643H1357l-99.7-100.1V57.1h156.9v128.5
	h128.5v157.2H1542.9z M1942.9,342.8h-185.6v143h185.6V643h-242.7l-100.1-100.1V285.7l100.1-100.1h242.7V342.8z M2442.9,643h-157.2
	V343.1h-128.5V643H2000V57.1h157.2v128.5h185.6l100.1,100.1V643z"/>
</svg>
