<?xml version="1.0" encoding="utf-8"?>
<!-- Generator: Adobe Illustrator 24.1.1, SVG Export Plug-In . SVG Version: 6.00 Build 0)  -->
<svg version="1.1" id="Layer_1" xmlns="http://www.w3.org/2000/svg" xmlns:xlink="http://www.w3.org/1999/xlink" x="0px" y="0px"
	 viewBox="0 0 2416.9 670.2" style="enable-background:new 0 0 2416.9 670.2;" xml:space="preserve">
<style type="text/css">
	.st0{fill:#FFFFFF;}
</style>
<path class="st0" d="M618.8,0.1c-40.4-0.1-65.3,0-105.3,0h-1.2c-17.9,0.2-33.8,11.3-40.1,28.1c-0.7,0.9-1.1,2-1.5,3
	c-40.2,114.4-75.2,212.7-115.4,327.3c-10.5,30.2-21,60.3-31.8,90.5c-0.9,2.4-3.1,5.4-5.4,6.1c-4.6,1.3-4.7-3.6-5.7-6.4
	c-25.1-71.4-50-142.8-75.1-214.1c-25.7-73.3-47-134.1-72.8-207.4c-0.2-0.8-0.6-1.6-1.2-2.4c-7.5-15.4-23.3-25-40.5-24.5
	C82.2,0,58.4-0.1,17.2,0.1C3.6,0.2-3.1,10.2,1.4,22.9c62,172.8,123.8,345.6,185.7,518.2c4.7,13,8.7,24.5,12.8,35.7
	c23.6,54.6,59.5,83.2,122.8,86.9c18.7,0,14.4,0,14.4,0c20.7-0.7,43.9-3.9,70.4-9.2l43.9-125.2c61.2-169.1,120.9-333.9,182.9-505.5
	c0.7-2,1.5-3.9,1.8-5.9C637.6,7.7,630.3,0.1,618.8,0.1 M1212.5,45.4v-1.2c0-22.8-17.5-41.7-40.2-43.4c-1.2-0.4-110.5,0-110.5,0
	s0,23.6,0,61.4c0,114.7,0.1,216.1-0.2,332.5c0,11.5-0.8,23.4-3.7,34.5c-10.4,42.8-36.4,72.5-78.8,85.3c-42.6,13-82.3,5.6-115.9-25
	c-25.2-23-37.4-52.6-37.4-86.5c-0.2-79.3-0.3-248.1-0.3-339.7V0.7c0,0-109.9-0.4-111.1,0c-22.7,1.7-40.2,20.7-40.2,43.4
	c0,0.4,0.1,0.8,0.1,1.2v20.5c0,119.1-0.2,220.8,0.2,342.3c0.1,19,2.2,38.2,6.5,56.6c31.7,136.6,166.5,227,310.9,201
	c67.6-12.3,123.1-45.9,165.6-100.1c35.1-44.7,54.1-95.8,54.5-152.8c0.5-63.7,0.1-127.2,0.1-190.7V45.4H1212.5L1212.5,45.4z
	 M2411.6,45.4c0.1-0.5,0.1-0.9,0.1-1.2c0-22.7-17.4-41.7-40.1-43.4c-1.3-0.4-110.7,0-110.7,0s0.1,23.6,0.1,61.4
	c0,114.7,0.1,216.1-0.1,332.5c0,11.5-1,23.4-3.7,34.5c-10.4,42.8-36.5,72.5-78.7,85.3c-42.7,13-82.5,5.6-115.9-25
	c-25.2-23-37.4-52.6-37.5-86.5c-0.2-79.3-0.2-248.1-0.2-339.7V0.7c0,0-109.9-0.4-111.1,0c-22.7,1.8-40.2,20.7-40.1,43.4v21.8
	c0,119.1-0.2,220.8,0.4,342.3c0,19,2.1,38.2,6.4,56.6c31.7,136.6,166.6,227,310.9,201c67.6-12.3,123.1-45.9,165.6-100.1
	c35.1-44.7,54.1-95.8,54.6-152.8c0.3-63.7,0-127.2,0-190.7L2411.6,45.4L2411.6,45.4z M1638.2,460.6c-30.3,36.1-69.4,56.4-116.3,61.7
	c-9,1-18.1,1.2-27.2,1.3c-25.9,0.3-52,0.2-77.9,0.2c-9.5,0-9.6,0-9.6-9.3V148.3c0-8.6,0.1-8.7,8.6-8.7c31.7,0.3,63.4-0.6,95.2,1.1
	c59.1,3,105.8,29.8,139.5,78.3c20.6,29.8,30.9,63.4,32.9,99.6C1686.3,371.8,1672.7,419.7,1638.2,460.6 M1682.6,51.8
	c-48.5-30.7-101.7-47-159-49C1497.2,2,1470.8,2,1444.5,2c-54-0.1-85.1,0-138.9,0c-0.3,0-0.6,0-1,0c-24.1,0-43.6,19.5-43.5,43.6V619
	c0,24,19.5,43.6,43.5,43.6c78.1-0.2,131.7,0,209.8-0.3c15.9-0.1,31.8-1.5,47.6-4.1c63.8-10.6,120.5-36.8,167.8-80.8
	c89.1-83,124.9-185.7,103.9-305.5C1817,176.5,1764.2,103.5,1682.6,51.8 M2385.5,613.1h-10.8v14.4h10.8c3.4,0,7.1-3,7.1-7
	C2392.6,616.3,2389,613.1,2385.5,613.1 M2392,647.8l-10.2-15.4h-7.1v15.4h-5.2v-39.2h16c6.6,0,12.4,4.7,12.4,12
	c0,8.7-7.8,11.7-9.9,11.7l10.4,15.6L2392,647.8L2392,647.8z M2382.7,598.7c-16.3,0-29.5,12.9-29.5,29.4c0,16.3,13.2,29.5,29.5,29.5
	s29.5-13.2,29.5-29.5C2412.1,611.5,2398.9,598.7,2382.7,598.7 M2382.7,662.3c-18.9,0-34.2-15.3-34.2-34.2c0-18.8,15.2-34.1,34-34.1
	c0.1,0,0.1,0,0.2,0c18.8-0.1,34.1,15,34.2,33.8c0,0.1,0,0.2,0,0.3C2416.9,647,2401.7,662.3,2382.7,662.3
	C2382.7,662.3,2382.7,662.3,2382.7,662.3"/>
</svg>
