<?xml version="1.0" encoding="utf-8"?>
<!-- Generator: Adobe Illustrator 26.2.1, SVG Export Plug-In . SVG Version: 6.00 Build 0)  -->
<svg version="1.1"
	 id="svg4180" xmlns:cc="http://creativecommons.org/ns#" xmlns:dc="http://purl.org/dc/elements/1.1/" xmlns:inkscape="http://www.inkscape.org/namespaces/inkscape" xmlns:rdf="http://www.w3.org/1999/02/22-rdf-syntax-ns#" xmlns:sodipodi="http://sodipodi.sourceforge.net/DTD/sodipodi-0.dtd" xmlns:svg="http://www.w3.org/2000/svg"
	 xmlns="http://www.w3.org/2000/svg" xmlns:xlink="http://www.w3.org/1999/xlink" x="0px" y="0px" viewBox="0 0 462.4 85"
	 style="enable-background:new 0 0 462.4 85;" xml:space="preserve">
<style type="text/css">
	.st0{fill:#FFFFFF;}
	.st1{fill:#FF0000;}
</style>
<sodipodi:namedview  bordercolor="#666666" borderopacity="1.0" fit-margin-bottom="0" fit-margin-left="0" fit-margin-right="0" fit-margin-top="0" id="base" inkscape:current-layer="layer1" inkscape:cx="231.2" inkscape:cy="42.499988" inkscape:document-units="mm" inkscape:pageopacity="0.0" inkscape:pageshadow="2" inkscape:window-height="744" inkscape:window-maximized="1" inkscape:window-width="1280" inkscape:window-x="-4" inkscape:window-y="-4" inkscape:zoom="1.9398789" pagecolor="#ffffff" showgrid="false" units="px">
	</sodipodi:namedview>
<path id="path4255" inkscape:connector-curvature="0" class="st0" d="M419.9,15.7H408V79h-11.7V15.7h-11.9V6h35.5V15.7z M422.5,6
	H435l3.9,32.8c1.1,9.4,2.1,17.5,3.3,28.6h0.5c1.1-11.1,2.2-19,3.3-28.6L450,6h12.4l-12,72.9h-15.8L422.5,6z"/>
<path id="path4257" inkscape:connector-curvature="0" class="st1" d="M118.9,13.3C117.5,8,113.4,4,108.2,2.5C98.7,0,60.7,0,60.7,0
	s-38,0-47.5,2.5C8,3.9,3.9,8,2.5,13.3C0,22.8,0,42.5,0,42.5s0,19.8,2.5,29.2C4,77,8,81.1,13.3,82.5C22.7,85,60.7,85,60.7,85
	s38,0,47.5-2.5c5.2-1.4,9.3-5.5,10.8-10.7c2.5-9.5,2.5-29.2,2.5-29.2S121.4,22.8,118.9,13.3z"/>
<path id="path4259" inkscape:connector-curvature="0" class="st0" d="M48.6,60.7l31.6-18.2L48.6,24.3V60.7z"/>
<path id="path4261" inkscape:connector-curvature="0" class="st0" d="M176.3,77.4c-2.6-1.8-4.4-4.5-5.1-7.6c-1.1-4.5-1.6-9-1.5-13.6
	v-7.7c-0.1-4.7,0.5-9.3,1.8-13.8c0.9-3.1,2.8-5.8,5.4-7.6c2.9-1.7,6.3-2.5,9.7-2.4c3.9,0,7.1,0.8,9.5,2.4c2.5,1.9,4.4,4.5,5.2,7.6
	c1.2,4.5,1.8,9.1,1.6,13.8v7.7c0.1,4.6-0.4,9.2-1.6,13.7c-0.8,3.1-2.6,5.7-5.2,7.6c-2.4,1.6-5.7,2.4-9.8,2.4
	C182.1,79.8,178.7,79,176.3,77.4L176.3,77.4z M189.8,69c0.7-1.7,1-4.6,1-8.5V44c0.1-2.8-0.2-5.7-1-8.4c-0.4-1.6-1.9-2.7-3.5-2.7
	c-1.6,0-3,1.1-3.4,2.7c-0.8,2.7-1.1,5.6-1,8.4v16.6c0,3.9,0.3,6.8,1,8.5c0.4,1.6,1.8,2.7,3.5,2.6C188,71.7,189.4,70.6,189.8,69z
	 M360.9,56.3V59c0,2.6,0.1,5.1,0.3,7.7c0.1,1.3,0.5,2.6,1.3,3.7c0.8,0.8,1.9,1.3,3,1.2c1.5,0.1,3-0.7,3.7-2.1c0.7-1.4,1-3.7,1.1-7
	l10.3,0.7c0.1,0.6,0.1,1.3,0.1,1.9c0,4.9-1.3,8.6-4,11c-2.7,2.4-6.5,3.6-11.4,3.6c-5.9,0-10-1.9-12.4-5.6c-2.4-3.7-3.6-9.4-3.6-17.2
	v-9.3c0-8,1.2-13.8,3.7-17.5c2.5-3.7,6.7-5.5,12.6-5.5c4.1,0,7.3,0.8,9.5,2.3c2.3,1.7,4,4.2,4.7,7c1,4.3,1.5,8.8,1.3,13.2v9.1
	L360.9,56.3z M362.4,33.9c-0.7,1.1-1.2,2.4-1.2,3.7c-0.2,2.6-0.3,5.2-0.3,7.8v3.8h8.8v-3.8c0-2.6-0.1-5.2-0.4-7.8
	c-0.1-1.3-0.5-2.6-1.3-3.7c-0.7-0.8-1.8-1.2-2.8-1.1C364.1,32.7,363.1,33.1,362.4,33.9L362.4,33.9z M147.1,55.3L133.5,6h11.9
	l4.8,22.3c1.2,5.5,2.1,10.2,2.7,14.1h0.4c0.4-2.8,1.3-7.4,2.7-14L161,6h11.9l-13.8,49.3V79h-11.9V55.3H147.1z M241.6,25.7V79h-9.4
	l-1-6.5h-0.3c-2.5,4.9-6.4,7.4-11.5,7.4c-3.5,0-6.1-1.2-7.8-3.5c-1.7-2.3-2.5-5.9-2.5-10.9V25.7h12v39.1c-0.1,1.7,0.2,3.5,0.8,5.1
	c0.5,1,1.5,1.6,2.6,1.5c1.1,0,2.1-0.4,3-1c0.9-0.6,1.7-1.4,2.1-2.4V25.7L241.6,25.7z M303.1,25.7V79h-9.4l-1-6.5h-0.3
	c-2.5,4.9-6.4,7.4-11.5,7.4c-3.5,0-6.1-1.2-7.8-3.5c-1.7-2.3-2.5-5.9-2.5-10.9V25.7h12v39.1c-0.1,1.7,0.2,3.5,0.8,5.1
	c0.5,1,1.5,1.6,2.6,1.5c1.1,0,2.1-0.4,3-1c0.9-0.6,1.7-1.4,2.1-2.4V25.7L303.1,25.7z"/>
<path id="path4263" inkscape:connector-curvature="0" class="st0" d="M274.2,15.7h-11.9V79h-11.7V15.7h-11.9V6h35.5V15.7z
	 M342.8,34.2c-0.7-3.3-1.9-5.8-3.5-7.3c-1.9-1.6-4.3-2.4-6.7-2.3c-2.2,0-4.3,0.6-6.2,1.9c-1.9,1.2-3.4,2.9-4.4,4.9h-0.1V3.3h-11.5
	V79h9.9l1.2-5h0.3c0.9,1.8,2.4,3.3,4.2,4.3c1.9,1,4,1.6,6.2,1.6c3.8,0.1,7.4-2.1,9-5.6c1.9-3.7,2.9-9.6,2.9-17.5v-8.4
	C344,43.5,343.6,38.8,342.8,34.2L342.8,34.2z M331.8,55.9c0,3-0.1,6.1-0.5,9.1c-0.1,1.7-0.7,3.3-1.6,4.7c-0.7,0.9-1.8,1.4-3,1.4
	c-1,0-1.9-0.2-2.7-0.7c-0.8-0.5-1.5-1.2-2-2.1V38.1c0.4-1.4,1.1-2.6,2.1-3.6c0.8-0.9,2-1.4,3.2-1.4c1.1,0,2.2,0.5,2.8,1.4
	c0.8,1.5,1.3,3.1,1.4,4.8c0.3,3.2,0.4,6.4,0.4,9.6L331.8,55.9z"/>
</svg>
